# OBJ written from C:\Users\nikjv\Desktop\Shop\Wood_Planks\Plank D.obj
# Units	meters

o Plank D
v 0.490949 0.180001 -2.52003
v 0.490949 -0.179999 -2.52003
v -0.509031 -0.179999 -2.58406
v -0.509031 0.180001 -2.58406
v 0.515511 0.179999 2.51137
v 0.515511 -0.180001 2.51137
v -0.484469 -0.180001 2.59096
v -0.484469 0.179999 2.59096
v 0.49446 0.180001 -1.80126
v 0.49446 -0.179999 -1.80126
v 0.53468 0.18 -0.00433013
v 0.53468 -0.18 -0.00433023
v 0.512001 0.18 1.7926
v 0.512001 -0.18 1.7926
v -0.505521 -0.18 -1.84477
v -0.53468 -0.18 0.0120501
v -0.487979 -0.180001 1.85167
v -0.505521 0.18 -1.84477
v -0.53468 0.18 0.0120502
v -0.48798 0.179999 1.85167
v -0.366171 0.180001 -2.58529
v -0.366171 -0.179999 -2.58529
v -0.00904083 0.180001 -2.59351
v -0.00904083 -0.179999 -2.59351
v 0.348099 0.180001 -2.57732
v 0.348099 -0.179999 -2.57732
v -0.341619 -0.180001 2.58972
v -0.341619 0.179999 2.58972
v 0.0155206 -0.180001 2.59351
v 0.0155206 0.179999 2.59351
v 0.372651 -0.180001 2.58035
v 0.372651 0.179999 2.58035
v -0.36266 -0.18 -1.846
v -0.00553036 -0.18 -1.85251
v 0.3516 -0.179999 -1.84051
v -0.38731 -0.18 0.00929003
v 0.000969887 -0.18 0.00206001
v 0.38872 -0.18 0.00150987
v -0.345119 -0.180001 1.85043
v 0.0120106 -0.18 1.85251
v 0.369141 -0.18 1.84354
v -0.36266 0.18 -1.846
v -0.00553083 0.18 -1.85251
v 0.351599 0.180001 -1.84051
v -0.38731 0.18 0.00929013
v 0.000969887 0.18 0.0020601
v 0.38872 0.18 0.00150997
v -0.345119 0.179999 1.85043
v 0.0120106 0.18 1.85251
v 0.36914 0.18 1.84354
v 0.494189 0.112767 -1.81973
v 0.490679 0.112767 -2.51969
v 0.454899 -0.0549995 -1.78358
v 0.451669 -0.0549993 -2.46963
v 0.494189 -0.112765 -1.81973
v 0.490679 -0.112765 -2.51969
v 0.5344 0.112766 -0.0051701
v 0.49191 -0.0549999 -0.00509014
v 0.5344 -0.112766 -0.00517016
v 0.51172 0.112766 1.80938
v 0.47104 -0.0550004 1.77343
v 0.51172 -0.112766 1.80938
v 0.515231 0.112765 2.51103
v 0.474271 -0.0550006 2.46115
v 0.515231 -0.112767 2.51103
v -0.508751 0.112767 -2.58371
v -0.50524 0.112766 -1.84452
v -0.468301 -0.0549994 -2.53237
v -0.46508 -0.0549996 -1.80787
v -0.508751 -0.112765 -2.58371
v -0.50524 -0.112766 -1.84452
v -0.53439 0.112766 0.0120502
v -0.4919 -0.0550001 0.0118102
v -0.53439 -0.112766 0.0120501
v -0.48771 0.112765 1.85142
v -0.448939 -0.0550006 1.81464
v -0.48771 -0.112767 1.85142
v -0.48421 0.112765 2.59061
v -0.445709 -0.0550007 2.53914
v -0.484209 -0.112767 2.59061
v -0.365971 0.112767 -2.58494
v -0.336881 -0.0549994 -2.53358
v -0.365971 -0.112765 -2.58494
v -0.00903082 0.112767 -2.59316
v -0.00832081 -0.0549993 -2.54164
v -0.00903082 -0.112765 -2.59316
v 0.347909 0.112767 -2.57697
v 0.320249 -0.0549993 -2.52577
v 0.347909 -0.112765 -2.57697
v -0.341429 0.112765 2.58937
v -0.31429 -0.0550007 2.53793
v -0.341429 -0.112767 2.58937
v 0.0155106 0.112765 2.59316
v 0.0142808 -0.0550007 2.54164
v 0.0155106 -0.112767 2.59316
v 0.37245 0.112765 2.58
v 0.342841 -0.0550006 2.52874
v 0.372451 -0.112767 2.58
vn 1.33158e-07 -1 -2.66316e-07
vn 1.33158e-07 -1 -2.66316e-07
vn -1.33158e-07 1 2.66316e-07
vn -1.33158e-07 1 2.66316e-07
vn 0.994416 -0.105416 -0.00498687
vn 0.99998 -0.00404221 -0.00488353
vn 0.999886 0.000137281 -0.0151239
vn 0.993123 -0.116441 -0.0122112
vn 0.982827 0.183985 -0.0141753
vn 0.975851 0.218388 -0.00459441
vn 0.954738 0.29724 -0.0110938
vn 0.974766 0.223174 -0.00488825
vn 0.999886 -0.000137007 -0.0151239
vn 0.99998 0.00404248 -0.00488353
vn 0.99998 -0.00410724 -0.00473982
vn 0.992072 -0.125578 -0.00485663
vn 0.981246 0.192709 -0.00446255
vn 0.949826 0.312744 -0.00465152
vn 0.99998 0.00410751 -0.00473982
vn 0.999982 -0.00286077 0.00523131
vn 0.992677 -0.120777 0.00247612
vn 0.98233 0.187088 0.00512005
vn 0.952544 0.304397 0.00173154
vn 0.999982 0.00286104 0.00523131
vn 0.999979 -0.00414175 -0.00488351
vn 0.994019 -0.109091 -0.00497287
vn 0.974676 0.223576 -0.00457807
vn 0.973229 0.229785 -0.00486877
vn 0.999979 0.00414203 -0.0048835
vn -0.992787 -0.119799 -0.00478327
vn -0.999976 -0.00418512 -0.00545329
vn -0.99998 -0.00414023 0.00474796
vn -0.994198 -0.107466 0.00472112
vn -0.974971 0.222291 0.00433366
vn -0.982568 0.185773 -0.00703493
vn -0.974261 0.225377 0.00462654
vn -0.953256 0.30214 -0.00388792
vn -0.99998 0.00413996 0.00474796
vn -0.999976 0.00418486 -0.00545329
vn -0.992063 -0.125652 0.00479982
vn -0.999979 -0.0043121 0.00483854
vn -0.981215 0.192868 0.00445305
vn -0.949854 0.312659 0.00459715
vn -0.999979 0.00431184 0.00483854
vn -0.99305 -0.116823 0.0142943
vn -0.999879 -0.00407155 0.0150396
vn -0.983055 0.18262 0.0159049
vn -0.955028 0.29623 0.0130231
vn -0.999879 0.00407128 0.0150396
vn -0.994599 -0.103688 0.00470971
vn -0.999981 -0.0038918 0.00474813
vn -0.976171 0.21696 0.00435229
vn -0.975795 0.21864 0.00462076
vn -0.999981 0.00389153 0.00474814
vn -0.0085297 -0.14004 -0.990109
vn -0.00860966 -0.005241 -0.999949
vn -0.0157974 -0.00525169 -0.999861
vn -0.0152881 -0.151858 -0.988284
vn -0.0176251 0.213843 -0.976709
vn -0.00891451 0.24999 -0.968207
vn -0.0141222 0.360273 -0.93274
vn -0.00823133 0.294979 -0.955468
vn -0.0157974 0.00525222 -0.999861
vn -0.00860966 0.00524154 -0.999949
vn 0.0111391 -0.00520335 -0.999924
vn 0.0109497 -0.150497 -0.98855
vn 0.011858 0.215904 -0.976342
vn 0.0102822 0.355991 -0.934433
vn 0.0111391 0.00520389 -0.999924
vn 0.21191 -0.00568598 -0.977273
vn 0.213252 -0.160672 -0.963695
vn 0.0468128 0.241761 -0.969206
vn 0.204003 0.365679 -0.908109
vn 0.21191 0.00568657 -0.977273
vn 0.372223 -0.00618847 -0.928123
vn 0.366875 -0.170909 -0.914436
vn 0.368935 -0.343494 -0.863654
vn 0.37131 -0.326491 -0.869214
vn 0.269274 0.728109 -0.630355
vn 0.345908 0.370137 -0.862175
vn 0.277336 0.708229 -0.649227
vn 0.372223 0.00618907 -0.928123
vn -0.00050747 -0.150921 0.988546
vn -0.000947938 -0.00520855 0.999986
vn 0.00868037 -0.00517211 0.999949
vn 0.00860052 -0.138937 0.990264
vn 0.00891892 0.248099 0.968694
vn -0.00249934 0.212955 0.977059
vn 0.00829996 0.294344 0.955663
vn -7.8283e-05 0.358822 0.933406
vn 0.00868037 0.00517158 0.999949
vn -0.000947938 0.00520802 0.999986
vn 0.0129898 -0.150704 0.988494
vn 0.0131115 -0.00520737 0.9999
vn 0.0135761 0.215211 0.976473
vn 0.0122952 0.356865 0.934075
vn 0.0131115 0.00520685 0.9999
vn 0.242875 -0.16273 0.956311
vn 0.241142 -0.00576963 0.970473
vn 0.0380521 0.24346 0.969164
vn 0.232276 0.366848 0.900817
vn 0.241142 0.00576918 0.970473
vn 0.42816 -0.176168 0.886366
vn 0.434807 -0.00636548 0.900501
vn 0.43133 -0.332397 0.838729
vn 0.428066 -0.351995 0.832382
vn 0.319598 0.71529 0.621464
vn 0.402231 0.38058 0.832688
vn 0.308838 0.737543 0.600541
vn 0.434807 0.00636512 0.900501
vt 0.884919 0.485087
vt 0.883912 0.472018
vt 0.951694 0.467545
vt 0.952722 0.480602
vt 0.955293 0.513254
vt 0.887661 0.517626
vt 0.942701 0.265625
vt 0.93871 0.296683
vt 0.874029 0.299126
vt 0.874965 0.266017
vt 0.935894 0.309607
vt 0.870704 0.312235
vt 0.71631 0.495433
vt 0.715462 0.482161
vt 0.718557 0.53052
vt 0.707109 0.30545
vt 0.705469 0.270754
vt 0.708231 0.318546
vt 0.54879 0.501925
vt 0.548391 0.488823
vt 0.549388 0.534569
vt 0.540594 0.316012
vt 0.536733 0.283043
vt 0.546167 0.328644
vt 0.480829 0.504171
vt 0.480485 0.491068
vt 0.481656 0.53693
vt 0.476629 0.319932
vt 0.469338 0.289807
vt 0.481198 0.33256
vt 0.948772 0.420035
vt 0.949461 0.433126
vt 0.881706 0.437552
vt 0.881021 0.424495
vt 0.879491 0.391925
vt 0.947171 0.387246
vt 0.87628 0.358971
vt 0.941153 0.356662
vt 0.872001 0.346161
vt 0.937159 0.344015
vt 0.71375 0.448034
vt 0.713269 0.434821
vt 0.71201 0.400099
vt 0.710165 0.365848
vt 0.709962 0.352804
vt 0.54716 0.454394
vt 0.546646 0.44134
vt 0.545052 0.408839
vt 0.544416 0.37571
vt 0.548311 0.362484
vt 0.4793 0.456704
vt 0.478768 0.443594
vt 0.477241 0.410766
vt 0.480269 0.380125
vt 0.483447 0.367037
vt 0.936939 0.337867
vt 0.873432 0.340055
vt 0.869624 0.324665
vt 0.93177 0.322289
vt 0.872592 0.318226
vt 0.936131 0.315754
vt 0.709731 0.346728
vt 0.708952 0.331117
vt 0.708614 0.324624
vt 0.546427 0.356567
vt 0.548664 0.340906
vt 0.545051 0.334765
vt 0.48303 0.360897
vt 0.486602 0.344836
vt 0.481573 0.338702
vt 0.882081 0.443687
vt 0.949822 0.439265
vt 0.946111 0.455309
vt 0.879767 0.459661
vt 0.951257 0.461411
vt 0.883495 0.465875
vt 0.714054 0.454078
vt 0.714837 0.469613
vt 0.715158 0.4761
vt 0.547398 0.460534
vt 0.551268 0.476171
vt 0.548195 0.482669
vt 0.47955 0.462849
vt 0.484811 0.478416
vt 0.480314 0.484921
vt 0.955601 0.432773
vt 0.954919 0.419706
vt 0.970845 0.416269
vt 0.971442 0.428274
vt 0.966117 0.482189
vt 0.958852 0.480139
vt 0.957826 0.467084
vt 0.965171 0.470203
vt 0.953312 0.386952
vt 0.969346 0.38625
vt 0.968477 0.512158
vt 0.961423 0.512772
vt 0.953198 0.386009
vt 0.946609 0.355312
vt 0.961964 0.353035
vt 0.96884 0.38235
vt 0.951284 0.297338
vt 0.944231 0.297601
vt 0.948808 0.266378
vt 0.955808 0.267532
vt 0.94309 0.342292
vt 0.959405 0.340186
vt 0.949858 0.310414
vt 0.941968 0.310798
vt 0.472606 0.443844
vt 0.473154 0.456927
vt 0.456977 0.454037
vt 0.456429 0.442029
vt 0.467387 0.495016
vt 0.474337 0.491248
vt 0.474676 0.504349
vt 0.467676 0.507036
vt 0.4711 0.411061
vt 0.455078 0.412009
vt 0.475509 0.537084
vt 0.468428 0.537084
vt 0.474837 0.379256
vt 0.471122 0.410103
vt 0.45517 0.408105
vt 0.459484 0.378294
vt 0.456438 0.292895
vt 0.463343 0.291209
vt 0.47137 0.321464
vt 0.464365 0.322025
vt 0.477393 0.365736
vt 0.460903 0.364796
vt 0.475307 0.334537
vt 0.467343 0.335354
mtllib Plank D.mtl
usemtl _mat_Default
g Default_planks
f 33/1/1 15/2/1 3/3/1 22/4/1
f 22/4/1 24/5/1 34/6/1 33/1/1
f 24/7/1 26/8/2 35/9/1 34/10/1
f 26/8/2 2/11/2 10/12/1 35/9/1
f 36/13/1 16/14/1 15/2/1 33/1/1
f 33/1/1 34/6/1 37/15/1 36/13/1
f 34/10/1 35/9/1 38/16/1 37/17/1
f 35/9/1 10/12/1 12/18/1 38/16/1
f 39/19/1 17/20/1 16/14/1 36/13/1
f 36/13/1 37/15/1 40/21/1 39/19/1
f 37/17/1 38/16/1 41/22/1 40/23/1
f 38/16/1 12/18/1 14/24/1 41/22/1
f 27/25/1 7/26/1 17/20/1 39/19/1
f 39/19/1 40/21/1 29/27/1 27/25/1
f 40/23/1 41/22/1 31/28/1 29/29/1
f 41/22/1 14/24/1 6/30/1 31/28/1
f 21/31/3 4/32/3 18/33/3 42/34/3
f 42/34/3 43/35/3 23/36/3 21/31/3
f 43/35/3 44/37/3 25/38/4 23/36/3
f 44/37/3 9/39/3 1/40/4 25/38/4
f 42/34/3 18/33/3 19/41/3 45/42/3
f 45/42/3 46/43/3 43/35/3 42/34/3
f 46/43/3 47/44/3 44/37/3 43/35/3
f 47/44/3 11/45/3 9/39/3 44/37/3
f 45/42/3 19/41/3 20/46/3 48/47/3
f 48/47/3 49/48/3 46/43/3 45/42/3
f 49/48/3 50/49/3 47/44/3 46/43/3
f 50/49/3 13/50/3 11/45/3 47/44/3
f 48/47/3 20/46/3 8/51/3 28/52/3
f 28/52/3 30/53/3 49/48/3 48/47/3
f 30/53/3 32/54/3 50/49/3 49/48/3
f 32/54/3 5/55/3 13/50/3 50/49/3
f 52/56/5 1/40/6 9/39/7 51/57/8
f 51/57/8 53/58/9 54/59/10 52/56/5
f 53/58/9 55/60/11 56/61/12 54/59/10
f 55/60/11 10/12/13 2/11/14 56/61/12
f 51/57/8 9/39/7 11/45/15 57/62/16
f 57/62/16 58/63/17 53/58/9 51/57/8
f 58/63/17 59/64/18 55/60/11 53/58/9
f 59/64/18 12/18/19 10/12/13 55/60/11
f 57/62/16 11/45/15 13/50/20 60/65/21
f 60/65/21 61/66/22 58/63/17 57/62/16
f 61/66/22 62/67/23 59/64/18 58/63/17
f 62/67/23 14/24/24 12/18/19 59/64/18
f 60/65/21 13/50/20 5/55/25 63/68/26
f 63/68/26 64/69/27 61/66/22 60/65/21
f 64/69/27 65/70/28 62/67/23 61/66/22
f 65/70/28 6/30/29 14/24/24 62/67/23
f 67/71/30 18/33/31 4/32/32 66/72/33
f 66/72/33 68/73/34 69/74/35 67/71/30
f 68/73/34 70/75/36 71/76/37 69/74/35
f 70/75/36 3/3/38 15/2/39 71/76/37
f 72/77/40 19/41/41 18/33/31 67/71/30
f 67/71/30 69/74/35 73/78/42 72/77/40
f 69/74/35 71/76/37 74/79/43 73/78/42
f 71/76/37 15/2/39 16/14/44 74/79/43
f 75/80/45 20/46/46 19/41/41 72/77/40
f 72/77/40 73/78/42 76/81/47 75/80/45
f 73/78/42 74/79/43 77/82/48 76/81/47
f 74/79/43 16/14/44 17/20/49 77/82/48
f 78/83/50 8/51/51 20/46/46 75/80/45
f 75/80/45 76/81/47 79/84/52 78/83/50
f 76/81/47 77/82/48 80/85/53 79/84/52
f 77/82/48 17/20/49 7/26/54 80/85/53
f 66/86/55 4/32/56 21/31/57 81/87/58
f 81/87/58 82/88/59 68/89/60 66/86/55
f 82/90/59 83/91/61 70/92/62 68/93/60
f 83/91/61 22/4/63 3/3/64 70/92/62
f 81/87/58 21/31/57 23/36/65 84/94/66
f 84/94/66 85/95/67 82/88/59 81/87/58
f 85/96/67 86/97/68 83/91/61 82/90/59
f 86/97/68 24/5/69 22/4/63 83/91/61
f 84/98/66 23/36/65 25/38/70 87/99/71
f 87/99/71 88/100/72 85/101/67 84/98/66
f 88/102/72 89/103/73 86/104/68 85/105/67
f 89/103/73 26/8/74 24/7/69 86/104/68
f 87/99/71 25/38/70 1/40/75 52/106/76
f 52/106/76 54/107/77 88/100/78 87/99/71
f 54/108/79 56/109/80 89/103/73 88/102/81
f 56/109/80 2/11/82 26/8/74 89/103/73
f 90/110/83 28/52/84 8/51/85 78/111/86
f 78/111/86 79/112/87 91/113/88 90/110/83
f 79/114/87 80/115/89 92/116/90 91/117/88
f 80/115/89 7/26/91 27/25/92 92/116/90
f 93/118/93 30/53/94 28/52/84 90/110/83
f 90/110/83 91/113/88 94/119/95 93/118/93
f 91/117/88 92/116/90 95/120/96 94/121/95
f 92/116/90 27/25/92 29/27/97 95/120/96
f 96/122/98 32/54/99 30/53/94 93/123/93
f 93/123/93 94/124/95 97/125/100 96/122/98
f 94/126/95 95/127/96 98/128/101 97/129/100
f 95/127/96 29/29/97 31/28/102 98/128/101
f 63/130/103 5/55/104 32/54/99 96/122/98
f 96/122/98 97/125/105 64/131/106 63/130/103
f 97/129/107 98/128/101 65/132/108 64/133/109
f 98/128/101 31/28/102 6/30/110 65/132/108
