# OBJ written from C:\Users\nikjv\Desktop\Shop\Wood_Planks\Plank E.obj
# Units	meters

o Plank E
v 0.45635 0.180001 -2.5835
v 0.45635 -0.179999 -2.5835
v -0.54363 -0.179999 -2.58751
v -0.54363 0.180001 -2.58751
v 0.500911 0.179999 2.57951
v 0.500911 -0.180001 2.57951
v -0.509069 -0.180001 2.58751
v -0.509069 0.179999 2.58751
v 0.487511 -0.18 1.83958
v 0.487511 0.18 1.83958
v 0.54363 -0.18 -0.00864024
v 0.54363 0.18 -0.00864015
v 0.46129 -0.179999 -1.85686
v 0.46129 0.180001 -1.85686
v -0.514009 -0.180001 1.84822
v -0.475689 -0.18 7.8747e-08
v -0.53869 -0.18 -1.84822
v -0.514009 0.179999 1.84822
v -0.47569 0.18 1.74621e-07
v -0.53869 0.18 -1.84822
v -0.400771 0.180001 -2.57611
v -0.40077 -0.179999 -2.57611
v -0.0436401 0.180001 -2.51011
v -0.0436401 -0.179999 -2.51011
v 0.3135 0.180001 -2.51315
v 0.3135 -0.179999 -2.51315
v -0.366219 -0.180001 2.5869
v -0.366219 0.179999 2.5869
v -0.00907898 -0.180001 2.58727
v -0.00907898 0.179999 2.58727
v 0.349601 -0.180001 2.58423
v 0.349601 0.179999 2.58423
v -0.371149 -0.180001 1.84698
v -0.014019 -0.18 1.84625
v 0.343121 -0.18 1.84317
v -0.332789 -0.18 -0.00122996
v 0.0367503 -0.18 -0.00432008
v 0.400771 -0.18 -0.0074102
v -0.39584 -0.18 -1.84945
v -0.0387001 -0.18 -1.84162
v 0.31843 -0.179999 -1.84469
v -0.371149 0.179999 1.84698
v -0.0140195 0.18 1.84625
v 0.343121 0.18 1.84317
v -0.33279 0.18 -0.00122986
v 0.0367503 0.18 -0.00431999
v 0.400771 0.18 -0.00741011
v -0.39584 0.18 -1.84945
v -0.0387001 0.18 -1.84162
v 0.318429 0.180001 -1.84469
v 0.48736 -0.112857 1.83933
v 0.500751 -0.112858 2.57916
v 0.465571 -0.0550004 1.85687
v 0.478371 -0.0550006 2.60375
v 0.48736 0.112857 1.83933
v 0.500751 0.112856 2.57916
v 0.54346 -0.112857 -0.00864023
v 0.51916 -0.0549999 -0.00872019
v 0.54346 0.112857 -0.00864017
v 0.46115 -0.112856 -1.85661
v 0.440529 -0.0549994 -1.87431
v 0.46115 0.112858 -1.85661
v 0.45621 -0.112856 -2.58315
v 0.43581 -0.0549993 -2.60778
v 0.45621 0.112858 -2.58315
v -0.508909 -0.112858 2.58716
v -0.513849 -0.112858 1.84797
v -0.486159 -0.0550008 2.61183
v -0.490879 -0.0550006 1.86559
v -0.508909 0.112856 2.58716
v -0.513849 0.112856 1.84797
v -0.47555 -0.112857 9.6591e-08
v -0.45429 -0.0550001 1.06337e-07
v -0.47555 0.112857 1.56702e-07
v -0.53853 -0.112857 -1.84797
v -0.51445 -0.0549996 -1.86559
v -0.53853 0.112857 -1.84797
v -0.54346 -0.112856 -2.58716
v -0.51916 -0.0549994 -2.61183
v -0.54346 0.112858 -2.58716
v -0.40065 -0.112856 -2.57576
v -0.38274 -0.0549994 -2.60032
v -0.400651 0.112858 -2.57576
v -0.0436301 -0.112856 -2.50977
v -0.0416703 -0.0549993 -2.53371
v -0.0436301 0.112858 -2.50977
v 0.3134 -0.112856 -2.51281
v 0.299389 -0.0549993 -2.53678
v 0.3134 0.112858 -2.51281
v -0.366099 -0.112858 2.58655
v -0.349739 -0.0550008 2.61121
v -0.366099 0.112856 2.58655
v -0.00907898 -0.112858 2.58692
v -0.0086689 -0.0550007 2.61159
v -0.00907898 0.112856 2.58692
v 0.349492 -0.112858 2.58388
v 0.333861 -0.0550007 2.60852
v 0.349491 0.112856 2.58388
vn 1.33158e-07 -1 -2.66316e-07
vn 1.33158e-07 -1 -2.66316e-07
vn -1.33158e-07 1 2.66316e-07
vn -1.33158e-07 1 2.66316e-07
vn 0.978156 0.207115 -0.0177037
vn 0.999833 0.00228802 -0.0181069
vn 0.999979 0.00225975 0.00606611
vn 0.983754 0.179339 0.00812122
vn 0.993375 0.114876 0.00303473
vn 0.995111 0.097282 -0.0170544
vn 0.997842 -0.0652924 0.00694121
vn 0.997284 -0.0714084 -0.01805
vn 0.999979 -0.00225949 0.00606611
vn 0.999833 -0.00228774 -0.0181069
vn 0.999972 0.00253186 -0.00708303
vn 0.980211 0.197836 -0.0068977
vn 0.991835 0.127349 -0.00670711
vn 0.99731 -0.0729589 -0.0070456
vn 0.999972 -0.00253159 -0.00708304
vn 0.99967 0.00217958 -0.0256131
vn 0.985456 0.167773 -0.0269861
vn 0.99392 0.1079 -0.0219367
vn 0.997805 -0.0607882 -0.0262702
vn 0.99967 -0.0021793 -0.0256131
vn 0.999975 0.0021199 -0.00679855
vn 0.982477 0.186266 -0.00668045
vn 0.996192 0.0869489 -0.0064109
vn 0.997958 -0.0635066 -0.00678579
vn 0.999975 -0.00211963 -0.00679856
vn -0.981771 0.1899 -0.0080278
vn -0.999973 0.00235645 -0.00699129
vn -0.999975 0.0024173 0.00668223
vn -0.978595 0.205693 0.0065403
vn -0.995369 0.0959169 0.00629601
vn -0.992615 0.121199 -0.00506876
vn -0.997466 -0.0708244 0.00666635
vn -0.997555 -0.0694867 -0.00746244
vn -0.999975 -0.00241756 0.00668223
vn -0.999973 -0.00235671 -0.00699129
vn -0.98424 0.176714 0.00658695
vn -0.999976 0.0020842 0.00667201
vn -0.993643 0.1124 0.00624909
vn -0.997924 -0.0640586 0.00666614
vn -0.999976 -0.00208447 0.00667201
vn -0.979662 0.199549 0.0210579
vn -0.99979 0.00230628 0.0203438
vn -0.991728 0.12714 0.0176305
vn -0.997089 -0.0733601 0.0207631
vn -0.99979 -0.00230656 0.0203438
vn -0.975381 0.220433 0.0065056
vn -0.999975 0.00249677 0.00668222
vn -0.994648 0.103132 0.00627812
vn -0.997045 -0.0765292 0.00665002
vn -0.999975 -0.00249704 0.00668222
vn 0.124394 -0.212752 -0.969156
vn 0.13073 0.00493425 -0.991406
vn 0.079545 0.00499504 -0.996819
vn 0.0782049 -0.184678 -0.979683
vn 0.083075 -0.153617 -0.984632
vn 0.141771 -0.136559 -0.980435
vn 0.0793658 0.0722234 -0.994226
vn 0.129107 0.076392 -0.988684
vn 0.079545 -0.00499448 -0.996819
vn 0.13073 -0.00493369 -0.991406
vn 0.0853451 -0.190776 -0.977917
vn 0.0870405 0.00503161 -0.996192
vn 0.0912287 -0.127515 -0.987632
vn 0.0867753 0.0681932 -0.993891
vn 0.0870405 -0.00503105 -0.996192
vn -0.233086 -0.206083 -0.950369
vn -0.231316 0.00458146 -0.972868
vn -0.226737 -0.141856 -0.96357
vn -0.23326 0.0753888 -0.969488
vn -0.231316 -0.004581 -0.972868
vn -0.429705 -0.232879 -0.872423
vn -0.441801 0.00375567 -0.897105
vn -0.455596 -0.161666 -0.875384
vn -0.440131 0.0881951 -0.893592
vn -0.441801 -0.0037553 -0.897105
vn 0.00420642 -0.172949 0.984922
vn 0.00426951 0.00520218 0.999977
vn 0.0016199 0.00520949 0.999985
vn 0.00178498 -0.197713 0.980258
vn 0.00139426 -0.128304 0.991734
vn 0.00449784 -0.145112 0.989405
vn 0.00169209 0.0703458 0.997521
vn 0.0042611 0.0671848 0.997731
vn 0.0016199 -0.00521002 0.999985
vn 0.00426951 -0.00520271 0.999977
vn 0.00371987 0.00521236 0.999979
vn 0.00364047 -0.197739 0.980248
vn 0.00390253 -0.128105 0.991753
vn 0.00370909 0.0703179 0.997518
vn 0.00371987 -0.00521289 0.999979
vn 0.0198395 0.00524385 0.999789
vn 0.0203077 -0.195183 0.980557
vn 0.0195204 -0.126555 0.991767
vn 0.0201224 0.0692844 0.997394
vn 0.0198395 -0.00524437 0.999789
vn 0.0311787 0.00528415 0.9995
vn 0.0307534 -0.166634 0.985539
vn 0.0326619 -0.140821 0.989496
vn 0.0311243 0.0646058 0.997425
vn 0.0311787 -0.00528467 0.9995
vt 0.501223 0.739676
vt 0.501383 0.75261
vt 0.434803 0.753441
vt 0.434482 0.740614
vt 0.433911 0.708431
vt 0.50092 0.707356
vt 0.436658 0.956659
vt 0.435982 0.924138
vt 0.503192 0.923771
vt 0.503686 0.956118
vt 0.435447 0.910939
vt 0.502875 0.910125
vt 0.26705 0.754943
vt 0.266894 0.74189
vt 0.266483 0.708282
vt 0.269204 0.958185
vt 0.268781 0.925431
vt 0.268634 0.912628
vt 0.0993345 0.756832
vt 0.0993367 0.743978
vt 0.100211 0.711745
vt 0.102898 0.959804
vt 0.102222 0.927614
vt 0.101217 0.914702
vt 0.0329811 0.757013
vt 0.0345152 0.74429
vt 0.0397547 0.712267
vt 0.0425044 0.962023
vt 0.0382186 0.92804
vt 0.0335842 0.913623
vt 0.43514 0.799225
vt 0.435176 0.786369
vt 0.501769 0.785682
vt 0.501916 0.7986
vt 0.502443 0.830895
vt 0.435307 0.831544
vt 0.502712 0.863334
vt 0.435306 0.864197
vt 0.502566 0.877025
vt 0.435065 0.877444
vt 0.267513 0.801393
vt 0.267398 0.788343
vt 0.267848 0.834886
vt 0.268177 0.867386
vt 0.268294 0.880079
vt 0.0998098 0.80259
vt 0.0995874 0.789747
vt 0.101311 0.83488
vt 0.101818 0.86763
vt 0.101037 0.880851
vt 0.0342534 0.803086
vt 0.0330532 0.790179
vt 0.0406307 0.835313
vt 0.0406243 0.867628
vt 0.034309 0.880586
vt 0.50277 0.904053
vt 0.435358 0.904781
vt 0.436909 0.899114
vt 0.504883 0.8984
vt 0.435113 0.883597
vt 0.502571 0.883097
vt 0.268574 0.906671
vt 0.268495 0.901096
vt 0.268356 0.886057
vt 0.101189 0.908427
vt 0.0994778 0.902743
vt 0.10107 0.887052
vt 0.0337994 0.907544
vt 0.0317306 0.901926
vt 0.0342887 0.886664
vt 0.434842 0.759478
vt 0.50143 0.758682
vt 0.503749 0.764268
vt 0.436476 0.765073
vt 0.501676 0.77961
vt 0.435083 0.780327
vt 0.267112 0.761085
vt 0.267182 0.766718
vt 0.267334 0.782208
vt 0.0994105 0.762848
vt 0.0979145 0.768503
vt 0.0995679 0.783712
vt 0.0330106 0.763086
vt 0.0307924 0.768768
vt 0.0330506 0.784105
vt 0.028607 0.743436
vt 0.026957 0.756226
vt 0.0215076 0.753484
vt 0.0231784 0.741343
vt 0.00600697 0.753195
vt 0.00794862 0.740383
vt 0 0.752299
vt 0.0019418 0.739483
vt 0.0337605 0.711295
vt 0.0281352 0.710621
vt 0.0130286 0.707974
vt 0.00702938 0.707031
vt 0.0317593 0.929543
vt 0.0364816 0.962852
vt 0.0308453 0.963489
vt 0.0258554 0.931601
vt 0.0157312 0.966239
vt 0.00983448 0.93431
vt 0.00974523 0.967318
vt 0.00383514 0.935511
vt 0.0277207 0.915296
vt 0.0221276 0.917472
vt 0.00686175 0.920168
vt 0.000894215 0.921377
vt 0.507454 0.75252
vt 0.507306 0.739601
vt 0.512988 0.738063
vt 0.513123 0.75041
vt 0.528356 0.739377
vt 0.528489 0.752292
vt 0.534434 0.739327
vt 0.534561 0.752245
vt 0.506992 0.7073
vt 0.512679 0.707206
vt 0.528022 0.707095
vt 0.534094 0.707031
vt 0.509758 0.956024
vt 0.509244 0.923666
vt 0.514931 0.925013
vt 0.515446 0.955916
vt 0.530209 0.923261
vt 0.53079 0.955678
vt 0.536286 0.923134
vt 0.536862 0.955573
vt 0.508947 0.91
vt 0.514653 0.911967
vt 0.529945 0.909575
vt 0.536017 0.909445
mtllib Plank E.mtl
usemtl _mat_Default
g Default_planks
f 27/1/1 7/2/1 15/3/2 33/4/1
f 33/4/1 34/5/1 29/6/1 27/1/1
f 34/7/1 35/8/1 31/9/1 29/10/1
f 35/8/1 9/11/1 6/12/1 31/9/1
f 33/4/1 15/3/2 16/13/1 36/14/1
f 36/14/1 37/15/1 34/5/1 33/4/1
f 37/16/1 38/17/1 35/8/1 34/7/1
f 38/17/1 11/18/1 9/11/1 35/8/1
f 36/14/1 16/13/1 17/19/1 39/20/1
f 39/20/1 40/21/1 37/15/1 36/14/1
f 40/22/1 41/23/1 38/17/1 37/16/1
f 41/23/1 13/24/1 11/18/1 38/17/1
f 39/20/1 17/19/1 3/25/1 22/26/1
f 22/26/1 24/27/1 40/21/1 39/20/1
f 24/28/1 26/29/1 41/23/1 40/22/1
f 26/29/1 2/30/1 13/24/1 41/23/1
f 42/31/3 18/32/4 8/33/3 28/34/3
f 28/34/3 30/35/3 43/36/3 42/31/3
f 30/35/3 32/37/3 44/38/3 43/36/3
f 32/37/3 5/39/3 10/40/3 44/38/3
f 45/41/3 19/42/3 18/32/4 42/31/3
f 42/31/3 43/36/3 46/43/3 45/41/3
f 43/36/3 44/38/3 47/44/3 46/43/3
f 44/38/3 10/40/3 12/45/3 47/44/3
f 48/46/3 20/47/3 19/42/3 45/41/3
f 45/41/3 46/43/3 49/48/3 48/46/3
f 46/43/3 47/44/3 50/49/3 49/48/3
f 47/44/3 12/45/3 14/50/3 50/49/3
f 21/51/3 4/52/3 20/47/3 48/46/3
f 48/46/3 49/48/3 23/53/3 21/51/3
f 49/48/3 50/49/3 25/54/3 23/53/3
f 50/49/3 14/50/3 1/55/3 25/54/3
f 52/56/5 6/12/6 9/11/7 51/57/8
f 51/57/8 53/58/9 54/59/10 52/56/5
f 53/58/9 55/60/11 56/61/12 54/59/10
f 55/60/11 10/40/13 5/39/14 56/61/12
f 51/57/8 9/11/7 11/18/15 57/62/16
f 57/62/16 58/63/17 53/58/9 51/57/8
f 58/63/17 59/64/18 55/60/11 53/58/9
f 59/64/18 12/45/19 10/40/13 55/60/11
f 57/62/16 11/18/15 13/24/20 60/65/21
f 60/65/21 61/66/22 58/63/17 57/62/16
f 61/66/22 62/67/23 59/64/18 58/63/17
f 62/67/23 14/50/24 12/45/19 59/64/18
f 60/65/21 13/24/20 2/30/25 63/68/26
f 63/68/26 64/69/27 61/66/22 60/65/21
f 64/69/27 65/70/28 62/67/23 61/66/22
f 65/70/28 1/55/29 14/50/24 62/67/23
f 67/71/30 15/3/31 7/2/32 66/72/33
f 66/72/33 68/73/34 69/74/35 67/71/30
f 68/73/34 70/75/36 71/76/37 69/74/35
f 70/75/36 8/33/38 18/32/39 71/76/37
f 72/77/40 16/13/41 15/3/31 67/71/30
f 67/71/30 69/74/35 73/78/42 72/77/40
f 69/74/35 71/76/37 74/79/43 73/78/42
f 71/76/37 18/32/39 19/42/44 74/79/43
f 75/80/45 17/19/46 16/13/41 72/77/40
f 72/77/40 73/78/42 76/81/47 75/80/45
f 73/78/42 74/79/43 77/82/48 76/81/47
f 74/79/43 19/42/44 20/47/49 77/82/48
f 78/83/50 3/25/51 17/19/46 75/80/45
f 75/80/45 76/81/47 79/84/52 78/83/50
f 76/81/47 77/82/48 80/85/53 79/84/52
f 77/82/48 20/47/49 4/52/54 80/85/53
f 81/86/55 22/26/56 3/25/57 78/87/58
f 78/87/58 79/88/59 82/89/60 81/86/55
f 79/88/59 80/90/61 83/91/62 82/89/60
f 80/90/61 4/92/63 21/93/64 83/91/62
f 84/94/65 24/27/66 22/26/56 81/86/55
f 81/86/55 82/89/60 85/95/67 84/94/65
f 82/89/60 83/91/62 86/96/68 85/95/67
f 83/91/62 21/93/64 23/97/69 86/96/68
f 87/98/70 26/29/71 24/28/66 84/99/65
f 84/99/65 85/100/67 88/101/72 87/98/70
f 85/100/67 86/102/68 89/103/73 88/101/72
f 86/102/68 23/104/69 25/105/74 89/103/73
f 63/106/75 2/30/76 26/29/71 87/98/70
f 87/98/70 88/101/72 64/107/77 63/106/75
f 88/101/72 89/103/73 65/108/78 64/107/77
f 89/103/73 25/105/74 1/109/79 65/108/78
f 66/110/80 7/2/81 27/1/82 90/111/83
f 90/111/83 91/112/84 68/113/85 66/110/80
f 91/112/84 92/114/86 70/115/87 68/113/85
f 92/114/86 28/116/88 8/117/89 70/115/87
f 90/111/83 27/1/82 29/6/90 93/118/91
f 93/118/91 94/119/92 91/112/84 90/111/83
f 94/119/92 95/120/93 92/114/86 91/112/84
f 95/120/93 30/121/94 28/116/88 92/114/86
f 93/122/91 29/10/90 31/9/95 96/123/96
f 96/123/96 97/124/97 94/125/92 93/122/91
f 97/124/97 98/126/98 95/127/93 94/125/92
f 98/126/98 32/128/99 30/129/94 95/127/93
f 96/123/96 31/9/95 6/12/100 52/130/101
f 52/130/101 54/131/102 97/124/97 96/123/96
f 54/131/102 56/132/103 98/126/98 97/124/97
f 56/132/103 5/133/104 32/128/99 98/126/98
