# OBJ written from C:\Users\nikjv\Desktop\Shop\Wood_Planks\Plank B.obj
# Units	meters

o Plank B
v 0.49854 0.235001 -2.15162
v 0.49854 -0.234999 -2.15162
v -0.50146 -0.234999 -2.16505
v -0.501461 0.235001 -2.16505
v 0.501461 0.234999 2.16505
v 0.501461 -0.235001 2.16505
v -0.498519 -0.235001 2.00515
v -0.498519 0.234999 2.00515
v -0.50146 -0.167857 -2.16505
v 0.49854 -0.167857 -2.15162
v -0.50146 5.09815e-07 -2.16505
v 0.49854 6.39394e-07 -2.15162
v -0.50146 0.167858 -2.16505
v 0.49854 0.167858 -2.15162
v 0.501461 -0.167858 2.16505
v 0.501461 -5.09815e-07 2.16505
v 0.501461 0.167856 2.16505
v -0.498519 -0.167858 2.00515
v -0.498519 -6.00387e-07 2.00515
v -0.498519 0.167856 2.00515
v 0.360621 -0.235001 2.16005
v 0.35568 -0.234999 -2.15162
v 0.00854069 -0.235001 2.08754
v -0.00146049 -0.234999 -2.15162
v -0.358649 -0.235001 2.04976
v -0.358601 -0.234999 -2.15162
v 0.35568 0.235001 -2.15162
v 0.360621 0.234999 2.16005
v -0.00146061 0.235001 -2.15162
v 0.00854045 0.234999 2.08754
v -0.358601 0.235001 -2.15162
v -0.358649 0.234999 2.04976
v 0.35568 -0.167857 -2.15162
v -0.00146049 -0.167857 -2.15162
v -0.358601 -0.167857 -2.15162
v 0.35568 6.20371e-07 -2.15162
v -0.00146049 5.72815e-07 -2.15162
v -0.358601 5.25259e-07 -2.15162
v 0.35568 0.167858 -2.15162
v -0.00146049 0.167858 -2.15162
v -0.358601 0.167858 -2.15162
v 0.360621 -0.167858 2.16005
v 0.00854069 -0.167858 2.08754
v -0.358649 -0.167858 2.04976
v 0.360621 -5.27238e-07 2.16005
v 0.00854069 -5.5481e-07 2.08754
v -0.358649 -5.93642e-07 2.04976
v 0.360621 0.167856 2.16005
v 0.00854045 0.167856 2.08754
v -0.358649 0.167856 2.04976
vn 1 1.33338e-07 -0.000676721
vn 1 1.33338e-07 -0.000676721
vn -1 -1.33346e-07 0.000705252
vn -1 -1.33346e-07 0.000705252
vn 1.33158e-07 -1 -2.66316e-07
vn 1.33158e-07 -1 -2.66316e-07
vn -1.33158e-07 1 2.66316e-07
vn -1.33158e-07 1 2.66316e-07
vn -2.81217e-07 2.66316e-07 -1
vn 0.0468801 2.72266e-07 -0.9989
vn 0.0468801 2.72266e-07 -0.998901
vn 0.0936574 2.77617e-07 -0.995605
vn 0.0468801 2.72266e-07 -0.998901
vn 0.0936574 2.77617e-07 -0.995605
vn 0.0468801 2.72266e-07 -0.998901
vn -0.119014 -2.80271e-07 0.992893
vn -0.0354778 -2.70873e-07 0.999371
vn -0.119014 -2.80271e-07 0.992893
vn -0.152224 -2.83482e-07 0.988346
vn -0.152224 -2.83482e-07 0.988346
vn -0.204188 -2.87895e-07 0.978932
vn -0.303858 -2.94185e-07 0.952717
vn -0.0354778 -2.70873e-07 0.999371
vn -0.119014 -2.80271e-07 0.992893
vn -0.152224 -2.83482e-07 0.988346
vn -0.204188 -2.87895e-07 0.978932
vn -0.119014 -2.80271e-07 0.992893
vn -0.152224 -2.83482e-07 0.988346
vt 0.414879 0.147119
vt 0.414914 0.153216
vt 0.0238534 0.155778
vt 0.0238088 0.149681
vt 0.0237002 0.13444
vt 0.414788 0.131878
vt 0.023609 0.119199
vt 0.41468 0.116637
vt 0.0235738 0.113102
vt 0.414635 0.11054
vt 0.0228023 0.253656
vt 0.0227267 0.247557
vt 0.401446 0.242595
vt 0.40153 0.248693
vt 0.401745 0.263938
vt 0.0229869 0.268901
vt 0.400016 0
vt 0.400001 0.015247
vt 0.0212405 0.015247
vt 0.021225 0
vt 0.399996 0.0213458
vt 0.0212446 0.0213458
vt 0.0240033 0.168844
vt 0.413868 0.165743
vt 0.409017 0.197479
vt 0.0239203 0.20144
vt 0.404383 0.229993
vt 0.0234807 0.234366
vt 0.413424 0.0980276
vt 0.0235523 0.100036
vt 0.0230425 0.0674434
vt 0.408158 0.0663584
vt 0.0221715 0.0345264
vt 0.403098 0.0339079
vt 0.0178642 0.16885
vt 0.0177864 0.155858
vt 0.0178061 0.201391
vt 0.0172665 0.23415
vt 0.0166597 0.247244
vt 0.00262055 0.168874
vt 0.00259313 0.155939
vt 0.00254161 0.201259
vt 0.00193775 0.233643
vt 0.001468 0.246633
vt 0.0174138 0.10011
vt 0.0175061 0.113102
vt 0.00231308 0.11322
vt 0.00217121 0.100286
vt 0.00166788 0.067905
vt 0.0169292 0.067573
vt 0.000639585 0.0355315
vt 0.0159605 0.0348237
vt 0 0.0225481
vt 0.0151823 0.0217391
vt 0.421008 0.153817
vt 0.419727 0.166436
vt 0.415103 0.198382
vt 0.410126 0.231049
vt 0.407434 0.243909
vt 0.436183 0.155555
vt 0.434687 0.168286
vt 0.430166 0.200613
vt 0.424906 0.233713
vt 0.42243 0.246835
vt 0.434209 0.0952122
vt 0.435871 0.107923
vt 0.42072 0.109859
vt 0.419273 0.0972587
vt 0.414232 0.0653757
vt 0.429264 0.0629478
vt 0.408827 0.0327772
vt 0.423571 0.0299194
vt 0.405967 0.0199531
vt 0.420923 0.0168308
mtllib Plank B.mtl
usemtl _mat_Default
g Default_planks
f 15/1/1 6/2/1 2/3/1 10/4/1
f 10/4/1 12/5/2 16/6/2 15/1/1
f 12/5/2 14/7/2 17/8/2 16/6/2
f 14/7/2 1/9/2 5/10/2 17/8/2
f 9/11/3 3/12/4 7/13/4 18/14/3
f 18/14/3 19/15/3 11/16/3 9/11/3
f 19/17/3 20/18/3 13/19/3 11/20/3
f 20/18/3 8/21/4 4/22/4 13/19/3
f 22/23/5 2/3/5 6/2/5 21/24/6
f 21/24/6 23/25/5 24/26/5 22/23/5
f 23/25/5 25/27/5 26/28/6 24/26/5
f 25/27/5 7/13/6 3/12/5 26/28/6
f 28/29/7 5/10/8 1/9/8 27/30/8
f 27/30/8 29/31/8 30/32/8 28/29/7
f 29/31/8 31/33/7 32/34/8 30/32/8
f 31/33/7 4/22/8 8/21/7 32/34/8
f 33/35/9 10/36/9 2/3/9 22/23/9
f 22/23/9 24/26/9 34/37/9 33/35/9
f 24/26/9 26/28/10 35/38/11 34/37/9
f 26/28/10 3/12/12 9/39/12 35/38/11
f 36/40/9 12/41/9 10/36/9 33/35/9
f 33/35/9 34/37/9 37/42/9 36/40/9
f 34/37/9 35/38/11 38/43/13 37/42/9
f 35/38/11 9/39/12 11/44/14 38/43/13
f 39/45/9 14/46/9 12/47/9 36/48/9
f 36/48/9 37/49/9 40/50/9 39/45/9
f 37/49/9 38/51/13 41/52/11 40/50/9
f 38/51/13 11/53/14 13/54/14 41/52/11
f 27/30/9 1/9/9 14/46/9 39/45/9
f 39/45/9 40/50/9 29/31/9 27/30/9
f 40/50/9 41/52/11 31/33/15 29/31/9
f 41/52/11 13/54/14 4/22/12 31/33/15
f 21/24/16 6/2/17 15/55/17 42/56/18
f 42/56/18 43/57/19 23/25/20 21/24/16
f 43/57/19 44/58/21 25/27/21 23/25/20
f 44/58/21 18/59/22 7/13/22 25/27/21
f 42/56/18 15/55/17 16/60/23 45/61/24
f 45/61/24 46/62/25 43/57/19 42/56/18
f 46/62/25 47/63/26 44/58/21 43/57/19
f 47/63/26 19/64/22 18/59/22 44/58/21
f 45/65/24 16/66/23 17/67/23 48/68/27
f 48/68/27 49/69/28 46/70/25 45/65/24
f 49/69/28 50/71/26 47/72/26 46/70/25
f 50/71/26 20/73/22 19/74/22 47/72/26
f 48/68/27 17/67/23 5/10/23 28/29/27
f 28/29/27 30/32/25 49/69/28 48/68/27
f 30/32/25 32/34/21 50/71/26 49/69/28
f 32/34/21 8/21/22 20/73/22 50/71/26
