# OBJ written from C:\Users\nikjv\Desktop\Shop\Wood_Planks\Plank A.obj
# Units	meters

o Plank A
v 0.499999 0.235001 -2.1725
v 0.499999 -0.234999 -2.1725
v -0.500001 -0.234999 -2.1725
v -0.500001 0.235001 -2.1725
v 0.500001 0.235 2.0675
v 0.500001 -0.235 2.0675
v -0.499999 -0.235001 2.1725
v -0.499999 0.234999 2.1725
v 0.499999 0.167858 -2.1725
v -0.500001 0.167858 -2.1725
v 0.499999 6.45151e-07 -2.1725
v -0.500001 5.11993e-07 -2.1725
v 0.499999 -0.167857 -2.1725
v -0.500001 -0.167857 -2.1725
v 0.500001 0.167857 2.0675
v 0.500001 -4.84029e-07 2.0675
v 0.500001 -0.167858 2.0675
v -0.499999 0.167856 2.1725
v -0.499999 -6.45151e-07 2.1725
v -0.499999 -0.167858 2.1725
v 0.357143 -0.235 2.0675
v 0.357142 -0.234999 -2.1725
v 5.90143e-07 -0.235001 2.09845
v -5.4728e-07 -0.234999 -2.1725
v -0.357142 -0.235001 2.15134
v -0.357143 -0.234999 -2.1725
v 0.357142 0.235001 -2.1725
v 0.357143 0.235 2.0675
v -6.09864e-07 0.235001 -2.1725
v 5.27559e-07 0.234999 2.09845
v -0.357144 0.235001 -2.1725
v -0.357142 0.234999 2.15134
v 0.357142 0.167858 -2.1725
v -6.00923e-07 0.167858 -2.1725
v -0.357144 0.167858 -2.1725
v 0.357142 6.26128e-07 -2.1725
v -5.78572e-07 5.78572e-07 -2.1725
v -0.357143 5.31015e-07 -2.1725
v 0.357142 -0.167857 -2.1725
v -5.5622e-07 -0.167857 -2.1725
v -0.357143 -0.167857 -2.1725
v 0.357143 0.167857 2.0675
v 5.365e-07 0.167856 2.09845
v -0.357142 0.167856 2.15134
v 0.357143 -5.03052e-07 2.0675
v 5.58851e-07 -5.58851e-07 2.09845
v -0.357142 -6.20493e-07 2.15134
v 0.357143 -0.167858 2.0675
v 5.81203e-07 -0.167858 2.09845
v -0.357142 -0.167858 2.15134
vn 1 1.33158e-07 -2.66316e-07
vn -1 -1.33158e-07 2.66316e-07
vn 1.33158e-07 -1 -2.66316e-07
vn 1.33158e-07 -1 -2.66316e-07
vn -1.33158e-07 1 2.66316e-07
vn -1.33158e-07 1 2.66316e-07
vn -2.81217e-07 2.66316e-07 -1
vn 0.0432089 -2.60314e-07 0.999066
vn 2.81217e-07 -2.66316e-07 1
vn 0.0432089 -2.60314e-07 0.999066
vn 0.116469 -2.48995e-07 0.993194
vn 0.116469 -2.48995e-07 0.993194
vn 0.146508 -2.43934e-07 0.989209
vn 0.146508 -2.43934e-07 0.98921
vn 0.146523 -2.43931e-07 0.989207
vn 0.116469 -2.48995e-07 0.993194
vn 0.146523 -2.43931e-07 0.989207
vn 0.116469 -2.48995e-07 0.993194
vn 0.146523 -2.43931e-07 0.989207
vn 0.0432089 -2.60314e-07 0.999066
vn 0.146523 -2.43931e-07 0.989207
vt 0.85129 0.0151772
vt 0.851297 0.0212482
vt 0.467826 0.0212482
vt 0.467834 0.0151773
vt 0.467878 0
vt 0.851245 0
vt 0.468913 0.268233
vt 0.468751 0.253057
vt 0.852196 0.250098
vt 0.852268 0.265276
vt 0.468697 0.246986
vt 0.852156 0.244028
vt 0.458608 0.118983
vt 0.458583 0.112915
vt 0.851537 0.111399
vt 0.851558 0.117467
vt 0.851613 0.132638
vt 0.45867 0.134154
vt 0.851675 0.147809
vt 0.458725 0.149325
vt 0.8517 0.153878
vt 0.458748 0.155394
vt 0.852134 0.231158
vt 0.467867 0.233937
vt 0.464624 0.201082
vt 0.852028 0.199002
vt 0.460488 0.168365
vt 0.851805 0.166787
vt 0.467097 0.0343036
vt 0.851374 0.0341177
vt 0.851516 0.0662734
vt 0.464107 0.0671827
vt 0.851542 0.0984894
vt 0.460224 0.0999305
vt 0.857355 0.0212002
vt 0.857428 0.0340816
vt 0.857566 0.0662615
vt 0.857609 0.098491
vt 0.857608 0.111402
vt 0.872507 0.0210772
vt 0.872585 0.0339731
vt 0.872723 0.0662332
vt 0.872779 0.0985034
vt 0.87278 0.111415
vt 0.873345 0.231139
vt 0.873367 0.244035
vt 0.858214 0.244029
vt 0.858188 0.231147
vt 0.858078 0.198967
vt 0.873234 0.198879
vt 0.857872 0.166738
vt 0.873042 0.166609
vt 0.857771 0.153828
vt 0.872943 0.153698
vt 0.460934 0.0338523
vt 0.461752 0.0208654
vt 0.458007 0.0665507
vt 0.454167 0.0991965
vt 0.452563 0.112171
vt 0.445675 0.0326832
vt 0.44659 0.0197825
vt 0.442807 0.0649815
vt 0.439069 0.0974078
vt 0.4375 0.110366
vt 0.461707 0.234436
vt 0.462626 0.247416
vt 0.447473 0.248616
vt 0.446459 0.235723
vt 0.443341 0.203447
vt 0.458529 0.201761
vt 0.439353 0.171051
vt 0.454437 0.169146
vt 0.437684 0.158105
vt 0.452733 0.156184
mtllib Plank A.mtl
usemtl _mat_Default
g Default_planks
f 9/1/1 1/2/1 5/3/1 15/4/1
f 15/4/1 16/5/1 11/6/1 9/1/1
f 16/7/1 17/8/1 13/9/1 11/10/1
f 17/8/1 6/11/1 2/12/1 13/9/1
f 18/13/2 8/14/2 4/15/2 10/16/2
f 10/16/2 12/17/2 19/18/2 18/13/2
f 12/17/2 14/19/2 20/20/2 19/18/2
f 14/19/2 3/21/2 7/22/2 20/20/2
f 22/23/3 2/12/3 6/11/3 21/24/4
f 21/24/4 23/25/3 24/26/3 22/23/3
f 23/25/3 25/27/3 26/28/3 24/26/3
f 25/27/3 7/22/3 3/21/3 26/28/3
f 28/29/5 5/3/6 1/2/6 27/30/6
f 27/30/6 29/31/6 30/32/6 28/29/5
f 29/31/6 31/33/6 32/34/6 30/32/6
f 31/33/6 4/15/6 8/14/6 32/34/6
f 27/30/7 1/2/7 9/35/7 33/36/7
f 33/36/7 34/37/7 29/31/7 27/30/7
f 34/37/7 35/38/7 31/33/7 29/31/7
f 35/38/7 10/39/7 4/15/7 31/33/7
f 33/36/7 9/35/7 11/40/7 36/41/7
f 36/41/7 37/42/7 34/37/7 33/36/7
f 37/42/7 38/43/7 35/38/7 34/37/7
f 38/43/7 12/44/7 10/39/7 35/38/7
f 36/45/7 11/46/7 13/47/7 39/48/7
f 39/48/7 40/49/7 37/50/7 36/45/7
f 40/49/7 41/51/7 38/52/7 37/50/7
f 41/51/7 14/53/7 12/54/7 38/52/7
f 39/48/7 13/47/7 2/12/7 22/23/7
f 22/23/7 24/26/7 40/49/7 39/48/7
f 24/26/7 26/28/7 41/51/7 40/49/7
f 26/28/7 3/21/7 14/53/7 41/51/7
f 42/55/8 15/56/9 5/3/9 28/29/10
f 28/29/10 30/32/11 43/57/12 42/55/8
f 30/32/11 32/34/13 44/58/14 43/57/12
f 32/34/13 8/14/15 18/59/15 44/58/14
f 45/60/8 16/61/9 15/56/9 42/55/8
f 42/55/8 43/57/12 46/62/16 45/60/8
f 43/57/12 44/58/14 47/63/14 46/62/16
f 44/58/14 18/59/15 19/64/17 47/63/14
f 48/65/8 17/66/9 16/67/9 45/68/8
f 45/68/8 46/69/16 49/70/18 48/65/8
f 46/69/16 47/71/14 50/72/14 49/70/18
f 47/71/14 19/73/17 20/74/19 50/72/14
f 21/24/20 6/11/9 17/66/9 48/65/8
f 48/65/8 49/70/18 23/25/12 21/24/20
f 49/70/18 50/72/14 25/27/14 23/25/12
f 50/72/14 20/74/19 7/22/21 25/27/14
