# File exported by Houdini 21.0.440 (www.sidefx.com)
# 125 points
# 403 vertices
# 103 primitives
# Bounds: [-0.4375, -0.00425872998, -0.4375] to [0.4375, 0.197999999, 0.4375]
g 
v 0 0.197999999 0
v -0.25 0.0874319971 0
v 0 0.0874319971 -0.25
v -0.257883012 0.00115227001 -0.255302995
v 0 0.0874319971 0.25
v -0.256265998 0.000686474028 0.256141007
v 0.265625 -0.00425872998 0.275563002
v -0.363750011 -0.00425872998 -0.289099008
v -0.253347993 -0.00425872998 -0.374054015
v -0.375 0.0083003398 0
v -0.25 0.0419509001 -0.125
v -0.379031003 0.000686474028 -0.128187001
v -0.125 0.177962005 0
v 0 0.177962005 -0.125
v -0.125 0.0419509001 -0.25
v -0.125 0.136737004 -0.125
v 0.0028593801 0.00738709001 -0.378280997
v -0.135694996 0.00108573004 -0.364394993
v -0.375061989 -0.00425872998 0.250813007
v -0.25 0.0419509001 0.125
v -0.377656013 0.000686474028 0.127891004
v -0.000781250012 0.00647384999 0.380766004
v -0.125827998 0.0418842994 0.250703007
v -0.140249997 -0.00425872998 0.386875004
v 0 0.177962005 0.125
v -0.125 0.136737004 0.125
v 0.122813001 -0.00425872998 0.375999987
v 0.375 0.0083003398 0
v 0.374857008 0.00064211298 0.124840997
v 0.372624993 -0.00425872998 -0.224625006
v 0.406812996 -0.00425872998 -0.154750004
v -0.311735988 -0.000794093008 -0.250925988
v -0.321900994 -0.00425872998 -0.342343003
v -0.4375 -0.00425872998 -0.125
v -0.413311988 -0.00425872998 -0.225924999
v -0.435061991 -0.00425872998 -0.183937997
v -0.4375 -0.00425872998 0
v -0.3125 0.0398904011 0
v -0.313172013 0.0116299 -0.125531003
v -0.1875 0.0878207982 -0.125
v -0.188687995 0.0116299 -0.250793993
v -0.1875 0.138083994 0
v -0.0625 0.195879996 0
v -0.0625 0.172977 -0.125
v -0.0625 0.0814893022 -0.25
v -0.202397004 -0.000794093008 -0.350219995
v -0.153725997 -0.00425872998 -0.40949899
v -0.0636840984 0.00728191994 -0.373816013
v 0 -0.00425872998 -0.4375
v -0.0658145994 -0.00425872998 -0.434184998
v -0.436250001 -0.00425872998 0.122625001
v -0.404062986 -0.00425872998 0.218437001
v -0.42593801 -0.00425872998 0.169688001
v -0.345061988 -0.00425872998 0.284063011
v -0.312968999 0.0116299 0.125531003
v -0.275375009 -0.00425872998 0.335375011
v -0.311937988 -0.00425872998 0.311937988
v -0.188187003 -0.00425872998 0.374186993
v -0.192858994 0.0112306997 0.254577994
v -0.238187999 -0.00425872998 0.356936991
v 0.00124999997 -0.00425872998 0.4375
v -0.0941874981 -0.00425872998 0.405936986
v -0.0466874987 -0.00425872998 0.433313012
v -0.0625 0.0814893022 0.25
v -0.1875 0.0878207982 0.125
v -0.0625 0.172977 0.125
v 0.0860624984 -0.00425872998 0.407187015
v 0.0529375002 -0.00425872998 0.433750004
v 0.214000002 -0.00425872998 0.309374988
v 0.311250001 -0.00425872998 0.245437995
v 0.315546989 0.0112306997 0.127952993
v 0.3125 0.0398904011 0
v 0.37906301 -0.00425872998 0.183624998
v 0.344749987 -0.00425872998 0.218312994
v 0.429688007 -0.00425872998 0.125
v 0.4375 -0.00425872998 0
v 0.0941874981 -0.00425872998 -0.410688013
v 0.0584999993 -0.00425872998 -0.434062988
v 0.315499991 0.0112306997 -0.128226995
v 0.343937993 -0.00425872998 -0.255688012
v 0.43343699 -0.00425872998 -0.0980625004
v 0.308625013 -0.00425872998 -0.280813009
v -0.214000002 -0.00425872998 0.366250008
v -0.135937005 0.00202080002 0.352499992
v -0.0754375011 0.0153448004 0.35531199
v -0.000624999986 0.0204067007 0.347593993
v 0.03125 0.197999999 0
v 0.03125 0.177962005 0.125
v 0.09375 0.158023 0.125
v 0.09375 0.189521998 0
v 0.03125 0.0874319971 0.25
v 0.0951875001 0.0630524009 0.252375007
v 0.15625 0.112758003 0.125
v 0.157530993 0.0234865006 0.253188014
v 0.222469002 0.00262963003 0.25999999
v 0.21875 0.0636612028 0.125
v 0.15625 0.160236999 0
v 0.21875 0.113237001 0
v 0.0391249992 0.00464736018 0.387187988
v 0.03675 0.0191891007 0.351875007
v 0.10475 -0.00425872998 0.391250014
v 0.136500001 -0.00425872998 0.362749994
v 0.104999997 0.0062475102 0.361375004
v 0.0282499995 -0.00425872998 0.4375
v 0.166500002 -0.00425872998 0.338
v 0.197500005 -0.00425872998 0.319000006
v 0.28125 0.0624048002 0
v 0.283280998 0.0240953993 0.126968995
v 0.289999992 -0.00425872998 0.259750009
v 0.0426875018 0.00464736018 -0.388125002
v 0.03125 -0.00425872998 -0.4375
v 0.03125 0.0874319971 -0.25
v 0.09375 0.0636612028 -0.25
v 0.112999998 -0.00425872998 -0.398999989
v 0.160249993 -0.00425872998 -0.372750014
v 0.15625 0.0240953993 -0.252813011
v 0.21875 0.00422665989 -0.252813011
v 0.21875 -0.00425872998 -0.335000008
v 0.03125 0.177962005 -0.125
v 0.09375 0.158023 -0.125
v 0.15625 0.112758003 -0.125
v 0.21875 0.0636612028 -0.125
v 0.293063015 -0.00178671 -0.250562012
v 0.28125 0.0243615005 -0.125
v 0.28125 -0.00425872998 -0.296000004
vt 0.0668216944 0.353500545 0.975550056
vt 0.0276434124 0.24179998 1
vt 0.00278627872 0.289785147 1
vt 0 0.357142866 1
vt 0.928571463 0.5 0.937905908
vt 1 0.5 1
vt 0.99535656 0.387928575 1
vt 0.964929163 0.323142827 1
vt 0.834929168 0.213643402 0.987777948
vt 0.893072009 0.20778513 1
vt 0.8527143 0.17907083 1
vt 0.821428597 0.161714256 1
vt 0.0714285374 0.5 0.937905908
vt 0.142857134 0.5 0.781719506
vt 0.142089099 0.356535971 0.921443999
vt 0.132113129 0.10875085 1
vt 0.0842856765 0.169601113 1
vt 0.143730283 0.213227421 0.982870221
vt 0.205276549 0.208225131 0.973247111
vt 0.324313134 0.0320011377 1
vt 0.210459411 0.0725096762 1
vt 0.268689126 0.0997485518 0.982870221
vt 0.34491998 0.0835485756 0.973576069
vt 0.541999996 0.902142882 0.884070098
vt 0.544714272 0.942500591 0.95596683
vt 0.620000005 0.912999988 0.948055387
vt 0.424783319 0.00378856063 1
vt 0.427218169 0.072781682 0.942941129
vt 0.284356564 0.21337828 0.921443999
vt 0.285714269 0.357142866 0.544743836
vt 0.357142866 0.357142866 0.302894175
vt 0.357142866 0.214285702 0.771532059
vt 0.503267884 0.067678839 0.942421138
vt 0.5 0 1
vt 0.285714269 0.5 0.296234429
vt 0.357142866 0.5 0.0990710855
vt 0.428571433 0.357142866 0.123717725
vt 0.428571433 0.5 0.010481596
vt 0.5 0.357142866 0.0990710855
vt 0.5 0.5 0
vt 0.428571433 0.214285702 0.576047778
vt 0.5 0.214285702 0.546666145
vt 0.680035412 0.789357781 0.862823009
vt 0.690285742 0.886285722 1
vt 0.725714326 0.864571452 1
vt 0.754250288 0.797142863 0.9659428
vt 0.548785746 0.0564285517 0.95596683
vt 0.607642889 0.0306422412 1
vt 0.566857159 0.0039280057 1
vt 0.535714269 0 1
vt 0.0683931112 0.646161139 0.975550056
vt 0.00142854452 0.640142858 1
vt 0.0132136941 0.693929136 1
vt 0.0382137001 0.749642313 1
vt 0.860571444 0.353454858 0.923417687
vt 0.857142866 0.5 0.781719506
vt 0.14232114 0.643464029 0.921443999
vt 0.207124561 0.792732596 0.975550056
vt 0.105643421 0.824643493 1
vt 0.143499434 0.856500566 1
vt 0.185285687 0.883285761 1
vt 0.744571447 0.853571415 1
vt 0.803571463 0.814929128 1
vt 0.344643414 0.902857184 0.968952954
vt 0.356196582 0.786517739 0.771861315
vt 0.279589713 0.790946305 0.923417687
vt 0.428571433 0.785714269 0.576047778
vt 0.413785696 0.906070828 0.903076947
vt 0.499285728 0.897250295 0.878050089
vt 0.5 0.785714269 0.546666145
vt 0.22778514 0.90792799 1
vt 0.285714269 0.642857134 0.544743836
vt 0.357142866 0.642857134 0.302894175
vt 0.214285702 0.642857134 0.771532059
vt 0.428571433 0.642857134 0.123717725
vt 0.5 0.642857134 0.0990710855
vt 0.535714269 0.642857134 0.0990710855
vt 0.535714269 0.5 0
vt 0.75 0.357142866 0.664192796
vt 0.75 0.5 0.419081986
vt 0.821428597 0.5 0.670404673
vt 0.821428597 0.357142866 0.858496904
vt 0.535714269 0.785714269 0.546666145
vt 0.75 0.211070836 0.958046794
vt 0.678571463 0.211070836 0.859812558
vt 0.678571463 0.357142866 0.421450257
vt 0.499107152 0.935161173 0.946936369
vt 0.75 0.117142826 1
vt 0.61971426 0.947142899 1
vt 0.640357733 0.929714322 1
vt 0.656000018 0.914571404 1
vt 0.607142866 0.214285702 0.664192796
vt 0.607142866 0.357142866 0.197652757
vt 0.392357141 0.963927984 1
vt 0.446642846 0.99521488 1
vt 0.501428545 1 1
vt 0.53228569 1 1
vt 0.560500026 0.995714307 1
vt 0.598357141 0.965356588 1
vt 0.678571463 0.5 0.186706364
vt 0.607142866 0.5 0.0419166088
vt 0.339714289 0.942142844 1
vt 0.535714269 0.357142866 0.0990710855
vt 0.255428553 0.918571472 1
vt 0.284929127 0.927642286 1
vt 0.214285702 0.5 0.546666145
vt 0.535714269 0.214285702 0.546666145
vt 0.860625148 0.646232009 0.923417687
vt 0.823749721 0.645107448 0.859812558
vt 0.925857186 0.243285686 1
vt 0.683142841 0.0739999712 1
vt 0.62914288 0.0439999998 1
vt 0.831428587 0.796857178 1
vt 0.855714321 0.780500591 1
vt 0.893999994 0.749500573 1
vt 0 0.5 1
vt 0.928408027 0.6426754 0.975769401
vt 0.991072059 0.642857134 1
vt 0.214285702 0.357142866 0.771532059
vt 0.75 0.642857134 0.664192796
vt 0.608785748 0.788428605 0.66720283
vt 0.678571463 0.642857134 0.421450257
vt 0.607142866 0.642857134 0.197652757
vt 0.933214903 0.709857166 1
vt 0.0713576972 0.786643445 1
vn -0.0283653997 0.999598026 0.000101295998
vn -0.523361981 0.852106988 0.00258811004
vn -0.0457452983 0.83047998 -0.555167019
vn -0.154339001 0.975404024 -0.157376006
vn -0.0259587001 0.824209988 0.565689027
vn -0.0947164968 0.987034023 0.129587993
vn 0.299172997 0.917922974 0.260601997
vn -0.100245997 0.992787004 -0.0657621995
vn -0.0290709008 0.996778011 -0.0747518986
vn -0.180195004 0.983630002 0.00099979795
vn -0.400074989 0.879882991 -0.256408989
vn -0.150913998 0.98694098 -0.0563240983
vn -0.486874998 0.873429 0.00864258036
vn -0.0399376005 0.923070014 -0.382553995
vn -0.270595014 0.841163993 -0.468210995
vn -0.48784101 0.795727015 -0.358927995
vn -0.0255610999 0.931441009 -0.362993985
vn -0.0822779015 0.954982996 -0.285023987
vn -0.164127007 0.98426801 0.0654209033
vn -0.300895989 0.927313983 0.222598001
vn -0.153166994 0.986881971 0.0510329008
vn -0.0193482004 0.95995599 0.279480994
vn -0.326128989 0.826587975 0.458685011
vn -0.134424999 0.964236021 0.228426993
vn -0.0251758993 0.923551977 0.382647008
vn -0.401903003 0.838249028 0.368528008
vn 0.287173003 0.902875006 0.319920003
vn 0.250629991 0.967679024 0.0279772002
vn 0.229955003 0.968342006 0.0971278027
vn 0.141626999 0.985980988 -0.0882209986
vn 0.164015993 0.984713018 -0.058644399
vn -0.209627002 0.969250023 -0.128885999
vn -0.0311184991 0.998746991 -0.0392009988
vn -0.141295999 0.989302993 -0.0362747982
vn -0.122473001 0.990662992 -0.0598900989
vn -0.0853673965 0.99613899 -0.0204588994
vn -0.197007 0.98040098 0.00111628999
vn -0.299367011 0.954137981 0.000587654999
vn -0.294070989 0.943713009 -0.151419997
vn -0.43679899 0.836145997 -0.331762999
vn -0.157480001 0.943297982 -0.292214006
vn -0.594434977 0.804114997 0.00673966995
vn -0.226888999 0.973909974 0.00446833018
vn -0.289528012 0.881375015 -0.373297989
vn -0.179762006 0.818560004 -0.545569003
vn -0.0517875999 0.985741973 -0.160092995
vn -0.0444618985 0.988497019 -0.144555002
vn -0.0617571995 0.931335986 -0.358886003
vn 0.00272275996 0.981667995 -0.190578997
vn -0.0331429988 0.981889009 -0.186535001
vn -0.141920999 0.988997996 0.0417224988
vn -0.125511006 0.990963995 0.0473111011
vn -0.0866611004 0.995811999 0.0291131008
vn -0.0764160976 0.994538009 0.0710994974
vn -0.197169006 0.974783003 0.104511
vn -0.10052 0.992796004 0.0652064011
vn -0.0389412008 0.997841001 0.0528860018
vn -0.0485475995 0.983619988 0.173594996
vn -0.170286 0.936852992 0.305464
vn -0.0874684006 0.970772028 0.223498002
vn -0.0234753005 0.982149005 0.186636001
vn -0.097931698 0.955819011 0.277164012
vn -0.0620624982 0.980270982 0.187662005
vn -0.25316301 0.806667984 0.534036994
vn -0.402996987 0.852487028 0.332955986
vn -0.211465001 0.90089798 0.379031003
vn 0.113013998 0.952138007 0.284007013
vn 0.102114998 0.975521982 0.194755003
vn 0.100167997 0.982490003 0.157098994
vn 0.359809995 0.916006029 0.177396998
vn 0.337300986 0.926263988 0.168116003
vn 0.328963012 0.943713009 0.0344861001
vn 0.134562999 0.986531019 0.0930007994
vn 0.271414995 0.951615989 0.144088998
vn 0.143056005 0.988714993 0.0444767997
vn 0.196989 0.980314016 -0.0133670997
vn 0.210399002 0.93699199 -0.27888599
vn 0.0833090022 0.977147996 -0.195553005
vn 0.167895004 0.979341984 -0.112699002
vn 0.0735779032 0.993336022 -0.0887148008
vn 0.196857005 0.979655027 -0.039037399
vn 0.0418832004 0.996996999 -0.0651300997
vn -0.0298595 0.962396979 0.270000011
vn -0.193538994 0.927899003 0.318663001
vn -0.181876004 0.894136012 0.409197986
vn -0.0174355991 0.888027012 0.45945999
vn 0.110532999 0.993870974 -0.00150848995
vn 0.149050996 0.912248015 0.381558001
vn 0.384339005 0.846903026 0.367475986
vn 0.367561996 0.92998898 0.00428890018
vn 0.0861961991 0.832337022 0.547527015
vn 0.353201985 0.803744018 0.478794992
vn 0.447813004 0.821295977 0.353464991
vn 0.385205001 0.838298023 0.385841012
vn 0.277655005 0.913177013 0.298352987
vn 0.459859014 0.827648997 0.321756005
vn 0.559288025 0.828960001 0.00472663995
vn 0.567635 0.823014975 -0.0209104996
vn 0.0556249991 0.956902027 0.285034001
vn 0.0432525985 0.895346999 0.443264991
vn 0.205825001 0.915129006 0.346661001
vn 0.394111991 0.85164398 0.345510989
vn 0.256415009 0.887479007 0.382927001
vn 0.0586872995 0.979984999 0.190226004
vn 0.385405988 0.864323974 0.323119015
vn 0.185108006 0.958528996 0.216698006
vn 0.439929992 0.897805989 -0.0201762002
vn 0.42780301 0.870640993 0.242833003
vn 0.423893005 0.865904987 0.265563011
vn 0.0935719982 0.941920996 -0.322535992
vn 0.0514625013 0.979493022 -0.194793001
vn 0.130813003 0.846242011 -0.516490996
vn 0.385874987 0.810864985 -0.439999014
vn 0.417724013 0.845892012 -0.331622988
vn 0.401134014 0.878395021 -0.259833008
vn 0.384169996 0.849008024 -0.362765014
vn 0.188430995 0.938639998 -0.288874
vn 0.191196993 0.968824029 -0.157555997
vn 0.0989323035 0.919803023 -0.379703999
vn 0.36332801 0.854018986 -0.372350007
vn 0.475001007 0.804199994 -0.357261986
vn 0.368717015 0.854222 -0.366542011
vn 0.0626906976 0.982213974 -0.176991999
vn 0.247286007 0.930666029 -0.269647002
vn 0.0626216009 0.994516015 -0.0837685987
g Default
usemtl /mat/Default
f 12/1/12 35/2/35 36/3/36 34/4/34
f 28/5/28 76/6/76 81/7/81 31/8/31
f 123/9/123 80/10/80 82/11/82 125/12/125
f 12/1/12 10/13/10 38/14/38 39/15/39
f 33/16/33 8/17/8 32/18/32 4/19/4
f 35/2/35 32/18/32 8/17/8
f 47/20/47 9/21/9 46/22/46 18/23/18
f 100/24/100 99/25/99 103/26/103
f 50/27/50 47/20/47 18/23/18 48/28/48
f 41/29/41 40/30/40 16/31/16 15/32/15
f 48/28/48 17/33/17 49/34/49 50/27/50
f 16/31/16 40/30/40 42/35/42 13/36/13
f 44/37/44 16/31/16 13/36/13 43/38/43
f 14/39/14 44/37/44 43/38/43 1/40/1
f 45/41/45 15/32/15 16/31/16 44/37/44
f 3/42/3 45/41/45 44/37/44 14/39/14
f 94/43/94 105/44/105 106/45/106 95/46/95
f 110/47/110 77/48/77 78/49/78 111/50/111
f 18/23/18 46/22/46 41/29/41 15/32/15
f 48/28/48 18/23/18 15/32/15 45/41/45
f 17/33/17 48/28/48 45/41/45 3/42/3
f 21/51/21 51/52/51 53/53/53 52/54/52
f 31/8/31 79/55/79 72/56/72 28/5/28
f 55/57/55 21/51/21 52/54/52
f 17/33/17 110/47/110 111/50/111 49/34/49
f 21/51/21 55/57/55 38/14/38 10/13/10
f 6/58/6 54/59/54 57/60/57 56/61/56
f 95/46/95 106/45/106 69/62/69 7/63/7
f 84/64/84 23/65/23 59/66/59
f 64/67/64 23/65/23 84/64/84 85/68/85
f 85/68/85 86/69/86 5/70/5 64/67/64
f 59/66/59 6/58/6 56/61/56 60/71/60
f 13/36/13 42/35/42 65/72/65 26/73/26
f 6/58/6 59/66/59 65/72/65 20/74/20
f 59/66/59 23/65/23 26/73/26 65/72/65
f 23/65/23 64/67/64 66/75/66 26/73/26
f 25/76/25 66/75/66 64/67/64 5/70/5
f 43/38/43 13/36/13 26/73/26 66/75/66
f 1/40/1 43/38/43 66/75/66 25/76/25
f 25/76/25 88/77/88 87/78/87 1/40/1
f 122/79/122 98/80/98 107/81/107 124/82/124
f 5/70/5 91/83/91 88/77/88 25/76/25
f 117/84/117 122/79/122 124/82/124 123/9/123
f 117/84/117 116/85/116 121/86/121 122/79/122
f 99/25/99 100/24/100 86/69/86 22/87/22
f 117/84/117 123/9/123 125/12/125 118/88/118
f 103/26/103 101/89/101 27/90/27 102/91/102
f 116/85/116 113/92/113 120/93/120 121/86/121
f 22/87/22 62/94/62 63/95/63 61/96/61
f 99/25/99 104/97/104 68/98/68 67/99/67
f 97/100/97 98/80/98 122/79/122 121/86/121
f 120/93/120 90/101/90 97/100/97 121/86/121
f 62/94/62 22/87/22 86/69/86 85/68/85
f 85/68/85 84/64/84 24/102/24 62/94/62
f 100/24/100 91/83/91 5/70/5 86/69/86
f 22/87/22 61/96/61 104/97/104 99/25/99
f 87/78/87 90/101/90 120/93/120 119/103/119
f 84/64/84 83/104/83 58/105/58 24/102/24
f 20/74/20 65/72/65 42/35/42 2/106/2
f 55/57/55 20/74/20 2/106/2 38/14/38
f 119/103/119 120/93/120 113/92/113 112/107/112
f 71/108/71 72/56/72 107/81/107 108/109/108
f 79/55/79 31/8/31 30/110/30 80/10/80
f 54/59/54 6/58/6 20/74/20 55/57/55
f 46/22/46 4/19/4 41/29/41
f 113/92/113 116/85/116 115/111/115 114/112/114
f 71/108/71 109/113/109 70/114/70 74/115/74
f 10/13/10 37/116/37 51/52/51 21/51/21
f 76/6/76 28/5/28 29/117/29 75/118/75
f 2/106/2 42/35/42 40/30/40 11/119/11
f 4/19/4 11/119/11 40/30/40 41/29/41
f 110/47/110 17/33/17 3/42/3 112/107/112
f 113/92/113 110/47/110 112/107/112
f 96/120/96 95/46/95 108/109/108
f 108/109/108 107/81/107 98/80/98 96/120/96
f 14/39/14 119/103/119 112/107/112 3/42/3
f 11/119/11 4/19/4 32/18/32 39/15/39
f 92/121/92 103/26/103 94/43/94
f 1/40/1 87/78/87 119/103/119 14/39/14
f 93/122/93 96/120/96 98/80/98 97/100/97
f 90/101/90 89/123/89 93/122/93 97/100/97
f 95/46/95 96/120/96 93/122/93 94/43/94
f 93/122/93 89/123/89 92/121/92 94/43/94
f 92/121/92 89/123/89 88/77/88 91/83/91
f 80/10/80 123/9/123 124/82/124 79/55/79
f 72/56/72 71/108/71 29/117/29 28/5/28
f 88/77/88 89/123/89 90/101/90 87/78/87
f 79/55/79 124/82/124 107/81/107 72/56/72
f 71/108/71 74/115/74 73/124/73 29/117/29
f 73/124/73 75/118/75 29/117/29
f 103/26/103 92/121/92 91/83/91 100/24/100
f 116/85/116 117/84/117 118/88/118 115/111/115
f 10/13/10 12/1/12 34/4/34 37/116/37
f 39/15/39 38/14/38 2/106/2 11/119/11
f 32/18/32 35/2/35 12/1/12 39/15/39
f 103/26/103 99/25/99 67/99/67 101/89/101
f 55/57/55 52/54/52 19/125/19 54/59/54
f 84/64/84 59/66/59 60/71/60 83/104/83
f 4/19/4 46/22/46 9/21/9 33/16/33
f 70/114/70 71/108/71 108/109/108 109/113/109
f 110/47/110 113/92/113 114/112/114 77/48/77
f 108/109/108 95/46/95 7/63/7 109/113/109
f 94/43/94 103/26/103 102/91/102 105/44/105
