# OBJ written from C:\Users\nikjv\Desktop\Shop\Wood_Planks\Plank C.obj
# Units	meters

o Plank C
v 0.510889 0.180001 -2.3143
v 0.510889 -0.179999 -2.3143
v -0.489087 -0.179999 -2.30623
v -0.489087 0.180001 -2.30623
v 0.545447 0.179999 2.34122
v 0.545447 -0.180001 2.34122
v -0.454528 -0.180001 2.3493
v -0.454529 0.179999 2.3493
v 0.515826 0.180001 -1.64923
v 0.515826 -0.18 -1.64923
v 0.479091 0.18 0.0234598
v 0.479091 -0.18 0.0234597
v 0.540511 0.18 1.67615
v 0.540511 -0.18 1.67615
v -0.48415 -0.18 -1.64115
v -0.541808 -0.18 0.03154
v -0.459466 -0.180001 1.68423
v -0.48415 0.18 -1.64115
v -0.541808 0.18 0.0315401
v -0.459466 0.18 1.68423
v -0.346234 0.180001 -2.30738
v -0.346233 -0.179999 -2.30738
v 0.0109005 0.180001 -2.31026
v 0.0109005 -0.179999 -2.31026
v 0.368034 0.180001 -2.31315
v 0.368034 -0.179999 -2.31315
v -0.311675 -0.180001 2.34815
v -0.311675 0.179999 2.34815
v 0.0454597 -0.180001 2.34526
v 0.0454597 0.179999 2.34526
v 0.402594 -0.180001 2.34238
v 0.402594 0.179999 2.34238
v -0.341296 -0.18 -1.64231
v 0.0158377 -0.18 -1.64519
v 0.372972 -0.18 -1.64807
v -0.398954 -0.18 0.0303801
v -0.0325351 -0.18 0.0274999
v 0.336325 -0.18 0.0246198
v -0.316612 -0.18 1.68307
v 0.0405226 -0.18 1.68019
v 0.397656 -0.18 1.6773
v -0.341297 0.18 -1.6423
v 0.0158377 0.18 -1.64519
v 0.372972 0.18 -1.64807
v -0.398954 0.18 0.0303802
v -0.0325351 0.18 0.0275
v 0.336325 0.18 0.0246199
v -0.316612 0.18 1.68307
v 0.0405226 0.18 1.68019
v 0.397656 0.18 1.6773
v 0.5158 0.112857 -1.64946
v 0.510863 0.112858 -2.31454
v 0.512186 -0.0549995 -1.68423
v 0.507249 -0.0549993 -2.3493
v 0.5158 -0.112857 -1.64946
v 0.510863 -0.112856 -2.31454
v 0.479066 0.112857 0.0232299
v 0.475451 -0.0549999 -0.0115402
v 0.479066 -0.112857 0.0232298
v 0.540485 0.112857 1.67591
v 0.53687 -0.0550004 1.64115
v 0.540485 -0.112857 1.67591
v 0.545423 0.112856 2.34099
v 0.541808 -0.0550006 2.30622
v 0.545423 -0.112858 2.34099
v -0.489111 0.112858 -2.30646
v -0.484175 0.112857 -1.64139
v -0.492726 -0.0549995 -2.34122
v -0.487789 -0.0549996 -1.67615
v -0.489111 -0.112856 -2.30646
v -0.484175 -0.112857 -1.64139
v -0.541832 0.112857 0.0313001
v -0.545447 -0.0550001 -0.00345992
v -0.541832 -0.112857 0.0313001
v -0.45949 0.112856 1.68399
v -0.463105 -0.0550005 1.64923
v -0.45949 -0.112858 1.68399
v -0.454553 0.112856 2.34906
v -0.458168 -0.0550007 2.3143
v -0.454553 -0.112858 2.34906
v -0.346258 0.112858 -2.30762
v -0.349873 -0.0549994 -2.34238
v -0.346258 -0.112856 -2.30762
v 0.0108762 0.112858 -2.3105
v 0.00726128 -0.0549994 -2.34526
v 0.0108762 -0.112856 -2.3105
v 0.368011 0.112858 -2.31338
v 0.364396 -0.0549993 -2.34815
v 0.368011 -0.112856 -2.31338
v -0.311699 0.112856 2.34791
v -0.315314 -0.0550007 2.31315
v -0.311699 -0.112858 2.34791
v 0.0454345 0.112856 2.34502
v 0.0418196 -0.0550006 2.31026
v 0.0454345 -0.112858 2.34502
v 0.402569 0.112856 2.34214
v 0.398955 -0.0550006 2.30738
v 0.402569 -0.112858 2.34214
vn 1.33158e-07 -1 -2.66316e-07
vn 1.33158e-07 -1 -2.66316e-07
vn -1.33158e-07 1 2.66316e-07
vn -1.33158e-07 1 2.66316e-07
vn 0.999914 -0.0107786 -0.00742282
vn 0.999972 -0.00034617 -0.00742329
vn 0.999973 -0.000398472 0.00730018
vn 0.999895 -0.0119129 0.00820344
vn 0.999782 0.0205494 0.00378835
vn 0.999881 0.0135042 -0.00742117
vn 0.999338 0.0350606 0.00976208
vn 0.999415 0.033397 -0.0074191
vn 0.999973 0.000398734 0.00730018
vn 0.999972 0.000346441 -0.00742328
vn 0.999971 -0.000346471 -0.00765855
vn 0.999907 -0.00975625 -0.00948483
vn 0.999767 0.0215704 -0.000599638
vn 0.999581 0.026054 -0.0126497
vn 0.999971 0.000346741 -0.00765855
vn 0.999753 -0.000292172 -0.0222483
vn 0.999734 -0.00880328 -0.021332
vn 0.999558 0.0147277 -0.0258091
vn 0.999462 0.0261933 -0.0197369
vn 0.999753 0.000292451 -0.0222483
vn 0.999972 -0.000332178 -0.0074219
vn 0.999928 -0.00946888 -0.00742289
vn 0.999723 0.0223523 -0.00742147
vn 0.999705 0.02312 -0.00742123
vn 0.999972 0.000332448 -0.0074219
vn -0.99981 0.0126484 -0.0148489
vn -0.999908 0.00041412 -0.0135634
vn -0.999972 0.000340843 0.00742279
vn -0.999914 0.0107779 0.00742244
vn -0.999881 -0.0135069 0.00742221
vn -0.999738 -0.0212167 -0.00855815
vn -0.999415 -0.0334004 0.00741872
vn -0.999149 -0.0375586 -0.0170627
vn -0.999972 -0.000341113 0.00742279
vn -0.999908 -0.00041438 -0.0135634
vn -0.999901 0.00957263 0.0103551
vn -0.99997 0.000329658 0.00775861
vn -0.99974 -0.0226653 -0.00229427
vn -0.999584 -0.0247305 0.0148707
vn -0.99997 -0.000329928 0.00775862
vn -0.999595 0.00821785 0.0272433
vn -0.999592 0.000264003 0.0285504
vn -0.999351 -0.0129111 0.0336277
vn -0.999377 -0.0249317 0.0249715
vn -0.999592 -0.000264284 0.0285504
vn -0.999928 0.00947198 0.00742271
vn -0.999972 0.000339694 0.00742304
vn -0.999723 -0.0223502 0.00742103
vn -0.999705 -0.0231233 0.00742105
vn -0.999972 -0.000339965 0.00742304
vn -0.00807609 0.104333 -0.99451
vn -0.00805025 0.00342793 -0.999962
vn -0.00805717 0.00357707 -0.999961
vn -0.00804841 0.103779 -0.994568
vn -0.00797822 -0.167704 -0.985805
vn -0.00801048 -0.163954 -0.986435
vn -0.00779331 -0.26911 -0.963078
vn -0.00781151 -0.273167 -0.961935
vn -0.00805717 -0.00357654 -0.999961
vn -0.00805025 -0.00342741 -0.999962
vn -0.00807811 0.003577 -0.999961
vn -0.0080206 0.103779 -0.994568
vn -0.00796343 -0.167705 -0.985805
vn -0.00776661 -0.269108 -0.963079
vn -0.00807811 -0.00357648 -0.999961
vn -0.00807117 0.00342787 -0.999961
vn -0.0080488 0.103733 -0.994573
vn -0.00795728 -0.167738 -0.985799
vn -0.00779413 -0.269096 -0.963082
vn -0.00807117 -0.00342734 -0.999961
vn -0.00805021 0.00357712 -0.999961
vn -0.00807712 0.103145 -0.994634
vn -0.00793126 -0.171294 -0.985188
vn -0.0078304 -0.264845 -0.964259
vn -0.00805021 -0.00357659 -0.999961
vn 0.00802754 -0.103778 0.994568
vn 0.00807144 -0.00357522 0.999961
vn 0.0080511 -0.00357884 0.999961
vn 0.00800547 -0.104407 0.994503
vn 0.00794052 0.16395 0.986437
vn 0.0079562 0.167705 0.985805
vn 0.0077431 0.273239 0.961915
vn 0.00777351 0.269106 0.963079
vn 0.0080511 0.00357831 0.999961
vn 0.00807144 0.0035747 0.999961
vn 0.00803446 -0.10378 0.994568
vn 0.00807809 -0.0035789 0.999961
vn 0.00796402 0.167704 0.985805
vn 0.00777992 0.26911 0.963078
vn 0.00807809 0.00357837 0.999961
vn 0.00801392 -0.103778 0.994568
vn 0.00809198 -0.00357535 0.999961
vn 0.00797728 0.167706 0.985805
vn 0.00776009 0.269107 0.963079
vn 0.00809198 0.00357482 0.999961
vn 0.00800821 -0.103099 0.994639
vn 0.00811953 -0.00342966 0.999961
vn 0.00800115 0.171329 0.985182
vn 0.0077636 0.264829 0.964264
vn 0.00811953 0.00342913 0.999961
vt 0.896802 0.624045
vt 0.89644 0.610942
vt 0.957192 0.61026
vt 0.957395 0.623217
vt 0.958006 0.655606
vt 0.897637 0.656693
vt 0.958633 0.687995
vt 0.898484 0.688998
vt 0.958866 0.70095
vt 0.89883 0.70185
vt 0.745773 0.624485
vt 0.745621 0.611819
vt 0.746155 0.657157
vt 0.746546 0.690632
vt 0.746704 0.703706
vt 0.596488 0.627529
vt 0.596542 0.61442
vt 0.596428 0.660181
vt 0.596345 0.692497
vt 0.596301 0.705353
vt 0.535878 0.62802
vt 0.535805 0.615071
vt 0.536057 0.660407
vt 0.536203 0.692806
vt 0.536259 0.705772
vt 0.956885 0.56463
vt 0.95689 0.577581
vt 0.896131 0.577917
vt 0.896273 0.564813
vt 0.89655 0.532227
vt 0.956883 0.532239
vt 0.899311 0.77938
vt 0.899286 0.747127
vt 0.959401 0.746566
vt 0.959632 0.778962
vt 0.899284 0.734276
vt 0.959307 0.733602
vt 0.745272 0.579842
vt 0.745131 0.56715
vt 0.744755 0.534285
vt 0.747589 0.783516
vt 0.747214 0.749855
vt 0.747072 0.736756
vt 0.596081 0.581404
vt 0.59566 0.568304
vt 0.594684 0.535725
vt 0.597544 0.782853
vt 0.59687 0.75061
vt 0.596595 0.737762
vt 0.535323 0.582414
vt 0.535075 0.569458
vt 0.534365 0.537068
vt 0.537227 0.783785
vt 0.53675 0.751396
vt 0.536582 0.73844
vt 0.959261 0.727513
vt 0.899219 0.72823
vt 0.902133 0.713086
vt 0.962221 0.712245
vt 0.898927 0.707896
vt 0.958982 0.707039
vt 0.747023 0.730598
vt 0.75004 0.715124
vt 0.746797 0.709858
vt 0.596566 0.731716
vt 0.599571 0.7166
vt 0.596381 0.711401
vt 0.536533 0.73235
vt 0.539527 0.717089
vt 0.536322 0.711862
vt 0.896208 0.584066
vt 0.956946 0.583671
vt 0.96023 0.598874
vt 0.899536 0.599468
vt 0.95714 0.60417
vt 0.896414 0.604792
vt 0.745363 0.585819
vt 0.748614 0.600639
vt 0.745573 0.605845
vt 0.596184 0.587554
vt 0.59958 0.602938
vt 0.596474 0.608272
vt 0.535448 0.588503
vt 0.538846 0.60368
vt 0.535765 0.608981
vt 0.96298 0.577584
vt 0.962975 0.564629
vt 0.978527 0.564929
vt 0.97853 0.577887
vt 0.98465 0.564625
vt 0.984653 0.577584
vt 0.990741 0.564623
vt 0.990744 0.577581
vt 0.962974 0.532239
vt 0.978524 0.532534
vt 0.984647 0.53223
vt 0.990738 0.532227
vt 0.965722 0.778919
vt 0.965491 0.746522
vt 0.98104 0.746713
vt 0.981272 0.779105
vt 0.987161 0.746367
vt 0.987392 0.778758
vt 0.99325 0.746321
vt 0.993482 0.778712
vt 0.965397 0.733563
vt 0.980946 0.733757
vt 0.987067 0.73341
vt 0.993156 0.733364
vt 0.508116 0.628174
vt 0.502026 0.62821
vt 0.501953 0.615252
vt 0.508043 0.615216
vt 0.52359 0.614829
vt 0.523665 0.627785
vt 0.529715 0.615099
vt 0.529789 0.628053
vt 0.508295 0.660568
vt 0.502205 0.660605
vt 0.523842 0.660174
vt 0.529967 0.660441
vt 0.508438 0.692929
vt 0.502349 0.692959
vt 0.502205 0.660564
vt 0.508295 0.660535
vt 0.523842 0.660159
vt 0.523985 0.692558
vt 0.529967 0.660433
vt 0.530111 0.692833
vt 0.508497 0.705887
vt 0.502407 0.705916
vt 0.524044 0.705517
vt 0.530169 0.705793
mtllib Plank C.mtl
usemtl _mat_Default
g Default_planks
f 33/1/1 15/2/1 3/3/1 22/4/1
f 22/4/1 24/5/1 34/6/1 33/1/1
f 24/5/1 26/7/1 35/8/1 34/6/1
f 26/7/1 2/9/2 10/10/1 35/8/1
f 36/11/1 16/12/1 15/2/1 33/1/1
f 33/1/1 34/6/1 37/13/1 36/11/1
f 34/6/1 35/8/1 38/14/1 37/13/1
f 35/8/1 10/10/1 12/15/1 38/14/1
f 39/16/1 17/17/1 16/12/1 36/11/1
f 36/11/1 37/13/1 40/18/1 39/16/1
f 37/13/1 38/14/1 41/19/1 40/18/1
f 38/14/1 12/15/1 14/20/2 41/19/1
f 27/21/1 7/22/1 17/17/1 39/16/1
f 39/16/1 40/18/1 29/23/1 27/21/1
f 40/18/1 41/19/1 31/24/2 29/23/1
f 41/19/1 14/20/2 6/25/1 31/24/2
f 21/26/3 4/27/3 18/28/3 42/29/3
f 42/29/3 43/30/3 23/31/3 21/26/3
f 43/32/3 44/33/3 25/34/3 23/35/3
f 44/33/3 9/36/3 1/37/4 25/34/3
f 42/29/3 18/28/3 19/38/3 45/39/3
f 45/39/3 46/40/3 43/30/3 42/29/3
f 46/41/3 47/42/3 44/33/3 43/32/3
f 47/42/3 11/43/3 9/36/3 44/33/3
f 45/39/3 19/38/3 20/44/3 48/45/3
f 48/45/3 49/46/3 46/40/3 45/39/3
f 49/47/3 50/48/3 47/42/3 46/41/3
f 50/48/3 13/49/4 11/43/3 47/42/3
f 48/45/3 20/44/3 8/50/3 28/51/3
f 28/51/3 30/52/3 49/46/3 48/45/3
f 30/53/3 32/54/4 50/48/3 49/47/3
f 32/54/4 5/55/3 13/49/4 50/48/3
f 52/56/5 1/37/6 9/36/7 51/57/8
f 51/57/8 53/58/9 54/59/10 52/56/5
f 53/58/9 55/60/11 56/61/12 54/59/10
f 55/60/11 10/10/13 2/9/14 56/61/12
f 51/57/8 9/36/7 11/43/15 57/62/16
f 57/62/16 58/63/17 53/58/9 51/57/8
f 58/63/17 59/64/18 55/60/11 53/58/9
f 59/64/18 12/15/19 10/10/13 55/60/11
f 57/62/16 11/43/15 13/49/20 60/65/21
f 60/65/21 61/66/22 58/63/17 57/62/16
f 61/66/22 62/67/23 59/64/18 58/63/17
f 62/67/23 14/20/24 12/15/19 59/64/18
f 60/65/21 13/49/20 5/55/25 63/68/26
f 63/68/26 64/69/27 61/66/22 60/65/21
f 64/69/27 65/70/28 62/67/23 61/66/22
f 65/70/28 6/25/29 14/20/24 62/67/23
f 67/71/30 18/28/31 4/27/32 66/72/33
f 66/72/33 68/73/34 69/74/35 67/71/30
f 68/73/34 70/75/36 71/76/37 69/74/35
f 70/75/36 3/3/38 15/2/39 71/76/37
f 72/77/40 19/38/41 18/28/31 67/71/30
f 67/71/30 69/74/35 73/78/42 72/77/40
f 69/74/35 71/76/37 74/79/43 73/78/42
f 71/76/37 15/2/39 16/12/44 74/79/43
f 75/80/45 20/44/46 19/38/41 72/77/40
f 72/77/40 73/78/42 76/81/47 75/80/45
f 73/78/42 74/79/43 77/82/48 76/81/47
f 74/79/43 16/12/44 17/17/49 77/82/48
f 78/83/50 8/50/51 20/44/46 75/80/45
f 75/80/45 76/81/47 79/84/52 78/83/50
f 76/81/47 77/82/48 80/85/53 79/84/52
f 77/82/48 17/17/49 7/22/54 80/85/53
f 66/86/55 4/27/56 21/26/57 81/87/58
f 81/87/58 82/88/59 68/89/60 66/86/55
f 82/88/59 83/90/61 70/91/62 68/89/60
f 83/90/61 22/92/63 3/93/64 70/91/62
f 81/87/58 21/26/57 23/31/65 84/94/66
f 84/94/66 85/95/67 82/88/59 81/87/58
f 85/95/67 86/96/68 83/90/61 82/88/59
f 86/96/68 24/97/69 22/92/63 83/90/61
f 84/98/66 23/35/65 25/34/70 87/99/71
f 87/99/71 88/100/72 85/101/67 84/98/66
f 88/100/72 89/102/73 86/103/68 85/101/67
f 89/102/73 26/104/74 24/105/69 86/103/68
f 87/99/71 25/34/70 1/37/75 52/106/76
f 52/106/76 54/107/77 88/100/72 87/99/71
f 54/107/77 56/108/78 89/102/73 88/100/72
f 56/108/78 2/109/79 26/104/74 89/102/73
f 90/110/80 28/111/81 8/112/82 78/113/83
f 78/113/83 79/114/84 91/115/85 90/110/80
f 79/114/84 80/116/86 92/117/87 91/115/85
f 80/116/86 7/22/88 27/21/89 92/117/87
f 93/118/90 30/119/91 28/111/81 90/110/80
f 90/110/80 91/115/85 94/120/92 93/118/90
f 91/115/85 92/117/87 95/121/93 94/120/92
f 92/117/87 27/21/89 29/23/94 95/121/93
f 96/122/95 32/123/96 30/124/91 93/125/90
f 93/125/90 94/126/92 97/127/97 96/122/95
f 94/126/92 95/128/93 98/129/98 97/127/97
f 95/128/93 29/23/94 31/24/99 98/129/98
f 63/130/100 5/131/101 32/123/96 96/122/95
f 96/122/95 97/127/97 64/132/102 63/130/100
f 97/127/97 98/129/98 65/133/103 64/132/102
f 98/129/98 31/24/99 6/25/104 65/133/103
